<?xml version="1.0" encoding="UTF-8"?>
<svg xmlns="http://www.w3.org/2000/svg" viewBox="0 0 425.2 108.2">
  <g fill="#003057">
    <path d="m205.4 60.9h36.5c.4-.1.6.2.7.5v.2 10.8c0 .4-.2.6-.5.7-.1 0-.1 0-.2 0h-5.9c-.4.1-.6-.2-.7-.5 0-.1 0-.1 0-.2v-4.1c0-.2-.1-.4-.3-.4h-7c-.2 0-.4.1-.4.3v.1 31.6c0 .2.1.4.3.4h.1 3.6c.4-.1.6.2.7.5v.2 5.3c.1.4-.2.6-.5.7-.1 0-.1 0-.2 0h-16c-.4.1-.6-.2-.7-.5 0-.1 0-.1 0-.2v-5.3c-.1-.4.2-.6.5-.7h.2 3.5c.2 0 .4-.1.4-.4v-.1-31.5c0-.2-.1-.4-.3-.4h-.2-6.9c-.2 0-.4.1-.4.3v.1 4.1c0 .4-.2.6-.5.7-.1 0-.1 0-.2 0h-5.8c-.4.1-.6-.2-.7-.5 0-.1 0-.1 0-.2v-10.9c-.1-.4.2-.6.5-.7.2 0 .3 0 .4.1z"></path>
    <path d="m253.7 73.5c3-.1 6 .7 8.6 2.4 2.3 1.6 4 3.9 4.9 6.6.7 2.2 1.1 5.5 1.1 9.8 0 .4-.3.7-.7.7h-20.1c-.2 0-.4.1-.4.4v.1c0 .9.2 1.7.4 2.5 1.2 3.3 3.6 4.9 7.3 4.9 2.9.2 5.7-1 7.7-3.1.4-.4.7-.4 1-.2l4 3.5c.3.2.4.6.2.9l-.1.1c-3.1 3.7-7.6 5.5-13.4 5.5-3 .1-6.1-.7-8.8-2.4-2.3-1.6-4.1-3.9-4.9-6.7-.8-2.6-1.2-5.4-1.2-8.1-.1-2.7.4-5.5 1.1-8.1.8-2.7 2.6-5.1 4.9-6.6 2.5-1.4 5.4-2.2 8.4-2.2zm.1 6.4c-3.3 0-5.5 1.4-6.4 4.2-.3.9-.4 1.9-.4 2.8 0 .2.1.4.4.4h.1 12.8c.2 0 .4-.1.4-.3 0-1-.1-1.9-.4-2.8-.4-1.3-1.3-2.3-2.4-3.1-1.4-.8-2.7-1.2-4.1-1.2z"></path>
    <path d="m287.9 73.5c4.6 0 8.3.9 11.3 2.6.4.2.5.5.5.9v7.5c.1.4-.2.6-.5.7-.1 0-.1 0-.2 0h-5.8c-.4 0-.6-.2-.7-.5 0-.1 0-.1 0-.2v-3c0-.2-.2-.4-.4-.4-1.3-.5-2.7-.7-4.1-.7-3.6 0-5.8 1.4-6.7 4.3-.5 2-.7 4-.7 6.1-.1 2.1.2 4.1.7 6.1 1 2.8 3.2 4.2 6.7 4.2 1.4.1 2.9-.1 4.1-.6.2-.1.4-.3.4-.4v-3c-.1-.4.2-.6.5-.7h.2 5.8c.4-.1.6.2.7.5v.2 7.5c0 .4-.2.7-.5.9-3.5 1.7-7.3 2.6-11.3 2.5-7.3 0-12-3-13.9-8.9-.8-2.7-1.1-5.5-1-8.3-.1-2.7.3-5.5 1-8.1.8-2.8 2.6-5.1 5.1-6.7 2.6-1.7 5.6-2.6 8.8-2.5z"></path>
    <path d="m305.5 60.9h10.2c.4-.1.6.2.7.5v.2 15.8h.1c1.8-2.5 4.7-3.8 8.5-3.8 3.1-.1 6.1 1.1 8.1 3.4 2.1 2.4 3.2 5.5 3.1 8.8v14.2c0 .2.1.4.3.4h.1 2.8c.4-.1.6.2.7.5v.2 5.3c.1.4-.2.6-.5.7-.1 0-.1 0-.2 0h-14.1c-.4.1-.6-.2-.7-.5 0-.1 0-.1 0-.2v-5.3c-.1-.4.2-.6.5-.7h.2 3c.2 0 .4-.1.4-.3v-.1-12.6c.1-1.9-.4-3.7-1.6-5.2-2.4-2.5-6.4-2.6-8.9-.2-.1.1-.2.2-.2.2-1.2 1.5-1.7 3.3-1.6 5.2v12.4c0 .2.1.4.3.4h.1 3c.4 0 .6.2.7.5v.2 5.3c.1.4-.2.6-.5.7-.1 0-.1 0-.2 0h-14.2c-.4.1-.6-.2-.7-.5 0-.1 0-.1 0-.2v-5.2c-.1-.4.2-.6.5-.7h.2 3c.2 0 .4-.1.4-.3v-32.2c0-.2-.1-.4-.3-.4h-.1-3c-.4.1-.6-.2-.7-.5 0-.1 0-.1 0-.2v-5.3c-.1-.4.2-.6.5-.7-.1.1 0 .1.1.2z"></path>
    <path d="m348.5 100.3c-1.9-.1-3.4 1.3-3.5 3.1-.1 1.9 1.3 3.4 3.1 3.5 1.9.1 3.4-1.3 3.5-3.1 0-.1 0-.3 0-.4 0-1.6-1.4-3-3.1-3.1zm0 6.2c-1.5 0-2.8-1.3-2.8-2.8s1.3-2.8 2.8-2.8 2.8 1.3 2.8 2.8-1.2 2.8-2.8 2.8z"></path>
    <path d="m349.1 103.7c.5-.1.8-.6.7-1.2-.1-.2-.2-.4-.3-.5-.4-.2-.7-.3-1.2-.3-.4 0-.7 0-1.1.1v3.8h.6v-1.6h.4c.4-.1.7.2.8.5v.1c0 .4.1.6.3 1h.6c-.1-.3-.2-.6-.3-.9.1-.6-.2-.9-.5-1zm-.7-.1h-.4v-1.3h.4c.6 0 .9.4.9.6s-.5.7-.9.7z"></path>
    <path d="m223.4 1c2.8 0 5.5.4 8.1 1.3 2.2.6 4.3 1.8 6.2 3.2.3.3.4.5.4 1v8.1c0 .4-.2.6-.5.7-.1 0-.1 0-.2 0h-6.1c-.4.1-.6-.2-.7-.5 0-.1 0-.1 0-.2v-4c0-.2-.1-.4-.3-.5-2.1-1.3-4.7-1.9-7.2-1.8-5 0-8.1 2.1-9.6 6.2-.7 2.2-1.1 5.8-1.1 10.6 0 5.1.3 8.6.9 10.5.5 1.8 1.7 3.4 3.2 4.5 1.9 1.2 4 1.7 6.3 1.5 3.3 0 5.8-.5 7.5-1.6.4-.2.7-.6.7-1.1v-9c0-.2-.1-.4-.3-.4h-.1-7.3c-.4.1-.6-.2-.7-.5 0-.1 0-.1 0-.2v-5.5c-.1-.4.2-.6.5-.7h.2 14.8c.4-.1.6.2.7.5v.2 19.5c0 .6-.4 1.3-.9 1.6-4 2.9-9.1 4.4-15.2 4.4-9.1 0-14.9-3.6-17.2-10.8-.8-2.3-1.2-6.6-1.2-12.9 0-5.9.4-10.2 1.3-12.8 2.5-7.5 8.4-11.3 17.8-11.3z"></path>
    <path d="m259.3 14.4c3-.1 6 .7 8.6 2.4 2.3 1.6 4 3.9 4.9 6.6.7 2.2 1.1 5.5 1.1 9.8 0 .4-.3.7-.7.7h-20.2c-.2 0-.4.1-.4.3v.1c0 .9.2 1.7.4 2.5 1.2 3.3 3.6 4.9 7.3 4.9 2.9.2 5.7-1 7.7-3.1.4-.4.7-.4 1-.2l4 3.5c.3.2.4.6.2.9l-.1.1c-3.1 3.7-7.6 5.5-13.4 5.5-3 .1-6.1-.7-8.7-2.4-2.3-1.6-4.1-3.9-4.9-6.7-.8-2.6-1.2-5.4-1.2-8.1-.1-2.7.3-5.5 1.1-8.1.8-2.7 2.6-5.1 4.9-6.6 2.5-1.3 5.4-2.2 8.4-2.1zm.1 6.5c-3.3 0-5.5 1.4-6.4 4.2-.3.9-.4 1.9-.4 2.8 0 .2.1.4.3.4h.1 12.9c.2 0 .4-.1.4-.4v-.1c0-1-.1-1.9-.4-2.8-.4-1.3-1.3-2.3-2.3-3.1-1.4-.7-2.8-1-4.2-1z"></path>
    <path d="m293 14.4c3-.1 6 .7 8.5 2.4 2.3 1.6 4.1 3.9 4.9 6.6.8 2.6 1.2 5.4 1.1 8.1.1 2.7-.3 5.5-1.1 8.1-.8 2.7-2.6 5.1-4.9 6.6-5.3 3.1-11.8 3.1-17.1 0-2.3-1.6-4.1-3.9-4.9-6.6-.8-2.6-1.2-5.4-1.1-8.1-.1-2.7.3-5.5 1.1-8.1.8-2.7 2.6-5.1 4.9-6.6 2.6-1.6 5.6-2.5 8.6-2.4zm0 6.8c-3.2 0-5.3 1.4-6.2 4.3-.5 2-.7 4-.7 6.1-.1 2.1.2 4.1.7 6.1 1 2.9 3 4.3 6.2 4.3 2.8.2 5.4-1.6 6.1-4.3.5-2 .7-4 .7-6.1.1-2.1-.2-4-.7-6.1-.8-2.8-2.8-4.3-6.1-4.3z"></path>
    <path d="m332 14.7c1.1 0 2.1.1 3.2.4.4.1.7.3.7.7v5.9c0 .6-.3.8-.8.7-1.3-.3-2.7-.4-4-.5-4.9 0-7.3 2.8-7.3 8.4v10.6c0 .2.1.4.4.4h.1 3.2c.4-.1.6.2.7.5v.2 5.3c.1.4-.2.6-.5.7-.1 0-.1 0-.2 0h-14.5c-.4.1-.6-.2-.7-.5 0-.1 0-.1 0-.2v-5.3c-.1-.4.2-.6.5-.7h.2 3c.2 0 .4-.1.4-.3v-18.7c0-.2-.1-.4-.4-.4h-.1-3c-.4.1-.6-.2-.7-.5 0-.1 0-.1 0-.2v-5.3c-.1-.4.2-.6.5-.7h.2 10.1c.4 0 .6.2.7.5v.2 3.4h.1c1.6-3 4.8-4.7 8.2-4.6z"></path>
    <path d="m350.8 14.4c4 0 6.9 1.3 8.5 3.8h.1v-2.4c-.1-.4.2-.6.5-.7h.2 10.3c.4-.1.6.2.7.5v.2 5.3c.1.4-.2.6-.5.7-.1 0-.1 0-.2 0h-3c-.2 0-.4.1-.4.3v.1 23.6c0 4.7-1.3 8.5-3.9 11.1s-6.4 3.9-11.4 3.9c-2.3 0-4.7-.4-6.7-1.3-2-.7-3.8-2-5.1-3.6-.3-.3-.3-.6 0-.9 0 0 .1 0 .1-.1l4-4c.2-.3.5-.4.8-.2.1 0 .1.1.2.2 1.9 2 4.5 3 7.2 3 4.9 0 7.3-2.6 7.3-7.8v-3h-.1c-1.6 2.5-4.5 3.8-8.5 3.8-2.5.1-5-.6-7.1-2-2-1.4-3.4-3.6-4.1-5.9-.8-2.7-1.2-5.5-1.1-8.3-.1-2.8.3-5.6 1.1-8.3 1.7-5.3 5.4-8 11.1-8zm2 6.8c-2.7-.2-5.1 1.5-5.8 4.1-.5 1.7-.8 3.6-.7 5.4-.1 1.8.2 3.7.7 5.4 1.1 3.2 4.5 5 7.7 3.9 1.9-.6 3.3-2.1 3.9-3.9.5-1.7.8-3.6.7-5.4 0-1.8-.2-3.7-.7-5.4-.7-2.6-3.1-4.3-5.8-4.1z"></path>
    <path d="m375.3 15.2h10.3c.4-.1.6.2.7.5v.2 25c0 .2.1.4.3.4h.1 3c.4-.1.6.2.7.5v.2 5.3c.1.4-.2.6-.5.7-.1 0-.1 0-.2 0h-14.2c-.4.1-.6-.2-.7-.5 0-.1 0-.1 0-.2v-5.3c-.1-.4.2-.6.5-.7h.2 2.9c.2 0 .4-.1.4-.3v-18.7c0-.2-.1-.4-.3-.4h-.1-3c-.4.1-.6-.2-.7-.5 0-.1 0-.1 0-.2v-5.3c-.1-.4.1-.7.6-.7-.1 0 0 0 0 0zm4-13.4h6.3c.4-.1.6.2.7.5v.2 5.9c.1.4-.2.6-.5.7-.1 0-.1 0-.2 0h-6.3c-.4 0-.6-.2-.7-.5 0-.1 0-.1 0-.2v-5.9c0-.4.2-.6.5-.6.1-.2.1-.2.2-.1z"></path>
    <path d="m407.6 14.4c4.9 0 8.4.9 10.5 2.7s3 4.7 3.1 8.8v15c0 .2.1.4.3.4h.1 3c.4-.1.6.2.7.5v.2 5.3c.1.4-.2.6-.5.7-.1 0-.1 0-.2 0h-9.7c-.4.1-.6-.2-.7-.5 0-.1 0-.1 0-.2v-2.4h-.2c-1.8 2.5-4.8 3.8-9.1 3.8-2.9.1-5.6-.8-7.9-2.6-2.1-1.7-3.1-4.2-3.1-7.4 0-3.5 1.2-6.1 3.4-7.9s5.5-2.6 9.6-2.6h6.5c.2 0 .4-.1.4-.4v-.1-1.3c0-2-.4-3.4-1.4-4.3s-2.8-1.3-5.3-1.4c-1.2 0-2.4.2-3.6.4-.3.1-.4.3-.4.4v3c.1.4-.2.6-.5.7-.1 0-.1 0-.2 0h-5.9c-.4 0-.6-.2-.7-.5 0-.1 0-.1 0-.2v-6.9c0-.4.2-.7.5-.9 3.8-1.6 7.5-2.3 11.3-2.3zm6 19.4h-5.3c-4.7 0-7 1.5-7 4.5 0 2.8 1.9 4.1 5.5 4.1 4.7 0 7.2-1.9 7.2-5.5v-2.7c0-.2-.2-.4-.4-.4z"></path>
  </g>
  <path d="m152.9 101.9c-1.7 0-3.1 1.3-3.2 3.1s1.3 3.1 3.1 3.2c1.7 0 3.1-1.3 3.2-3.1 0 0 0 0 0-.1 0-1.7-1.4-3.1-3.1-3.1zm0 5.7c-1.4-.1-2.6-1.3-2.5-2.8.1-1.3 1.1-2.4 2.5-2.5 1.4 0 2.5 1.2 2.5 2.6 0 1.5-1.1 2.6-2.5 2.7z" fill="#b3a369"></path>
  <path d="m153.5 105.1c.4-.1.7-.4.7-.8 0-.3-.1-.5-.3-.7-.3-.2-.7-.3-1.1-.3-.3 0-.7 0-1 .1v3.5h.6v-1.5h.4c.3-.1.7.2.7.5v.1c0 .3.1.6.2.9h.6c-.1-.3-.2-.6-.2-.9-.1-.6-.3-.9-.6-.9zm-.8-.2h-.4v-1.2h.4c.6 0 .8.3.8.6s-.3.6-.8.6z" fill="#b3a369"></path>
  <path d="m69.2 34.7v27h14.5l1.5-8.1h6.5c-2.4 12.3-14.7 20.9-30.3 20.9-1.1 0-2.2 0-3.2-.1-8.6-.7-16.6-3.4-22.4-7.8-6.4-4.8-9.7-11.3-9.7-18.7 0-7.9 3.5-15.5 9.5-20.7 6.1-5.3 13.9-8.3 22-8.6h1.6c10.2.2 20.1 3.8 28 10.2.4.3.5.4.6.5.2.1.4.3.6.5l.2.2h16.7v-29.2h-17v8.3c-7.1-4.5-19.2-9.1-33.4-9.1h-.2c-15.5.1-30.4 6.3-41.3 17.3-8.7 9-13.5 19.9-13.4 30.8.2 11.7 5.8 22.6 15.9 30.8 9.7 7.7 22.8 12.1 36 12.1 1.6 0 3.3-.1 4.9-.2 13.1-1.1 24.6-4 32.8-8.4v3.6h17.9v-32.4h6.2v37.6h-9.3v16.9h41.6v-16.9h-9.3v-37.6h21.1l1.5 8.1h14.6v-27z" fill="#b3a369"></path>
</svg>
