<?xml version="1.0" encoding="UTF-8"?><svg id="_图层_2" xmlns="http://www.w3.org/2000/svg" xmlns:xlink="http://www.w3.org/1999/xlink" viewBox="0 0 427.33 553.75"><defs><style>.cls-1{fill:url(#_未命名的渐变_51);}.cls-1,.cls-2,.cls-3,.cls-4{stroke-width:0px;}.cls-2{fill:url(#_未命名的渐变_51-3);}.cls-3{fill:url(#_未命名的渐变_51-2);}.cls-4{fill:url(#_未命名的渐变_51-4);}.cls-5{filter:url(#drop-shadow-1);}</style><filter id="drop-shadow-1" filterUnits="userSpaceOnUse"><feOffset dx="2" dy="2"/><feGaussianBlur result="blur" stdDeviation="2"/><feFlood flood-color="#000" flood-opacity=".39"/><feComposite in2="blur" operator="in"/><feComposite in="SourceGraphic"/></filter><linearGradient id="_未命名的渐变_51" x1="58.19" y1="114.83" x2="260.64" y2="114.83" gradientUnits="userSpaceOnUse"><stop offset="0" stop-color="#3079c1"/><stop offset=".2" stop-color="#569bd2"/><stop offset=".45" stop-color="#80bfe5"/><stop offset=".67" stop-color="#9edaf3"/><stop offset=".86" stop-color="#b0eafc"/><stop offset="1" stop-color="#b7f0ff"/></linearGradient><linearGradient id="_未命名的渐变_51-2" x1="160.72" y1="-5.06" x2="97.13" y2="355.6" xlink:href="#_未命名的渐变_51"/><linearGradient id="_未命名的渐变_51-3" x1="366.65" y1="441.59" x2="178.93" y2="441.59" xlink:href="#_未命名的渐变_51"/><linearGradient id="_未命名的渐变_51-4" x1="257.99" y1="569.6" x2="324.97" y2="189.73" xlink:href="#_未命名的渐变_51"/></defs><g id="option1_shadow" class="cls-5"><path class="cls-1" d="M153.92,79.96c-51.06,28.09-82.91,63.47-94.67,105.18-.38,1.33-.73,2.67-1.06,4.02,5.68-10.16,11.64-17.26,14.25-20.38,13.41-15.98,28.14-24.45,43-33,21.61-12.43,27.46-10.75,54-24,8.87-4.43,28.78-14.49,50-31,11.39-8.86,26.15-21.92,41.2-40.29-4.33.96-8.64,2-12.92,3.13-13.15,3.46-53.17,14-93.79,36.35Z"/><path class="cls-3" d="M49.63,182.43c12.51-44.38,45.98-81.8,99.47-111.22,41.71-22.94,82.62-33.71,96.06-37.25,8.19-2.16,16.5-4.02,24.85-5.59.14-.19.28-.38.43-.57-9.24-5.87-69.41-42.71-143-21C60.62,26.5,30.2,80.48,22.44,94.78c-7.57,13.95-28.01,56.02-21,111,4.98,39.03,21.49,66.16,28,76,27.22,41.14,64.06,58.82,86,69,44.28,20.55,85.07,22.73,109,22-16.9-1.9-37.51-5.86-60-14-26.82-9.7-62.2-21.8-90-55-10.85-12.95-26.58-31.74-29-60-.1-1.21-.18-2.42-.23-3.62-2.15-20.27-.68-39.64,4.42-57.74Z"/><path class="cls-2" d="M254.44,467.38c4.17-2.82,8.46-5.73,13.36-9.17l1.92-1.35c.97-.69,9.84-6.96,21.68-16.04,22.4-17.17,40.08-30.73,53.13-47.14,4.9-6.17,15.44-19.43,22.13-38.55-10.78,18.58-25.91,16.94-78.21,54.66-25.82,18.62-54.33,39.47-80,72-12.8,16.22-22.35,32.13-29.51,46.27,13.65-13.36,31.37-28.97,53.55-45.3,8.68-6.39,15.13-10.75,21.96-15.38Z"/><path class="cls-4" d="M397.71,264.13c-29-44.47-71.16-62.67-91.27-71.35-48.85-21.08-92.94-20.04-115-18,19.61.51,49.56,3.62,83,17,18.21,7.29,37.64,15.07,54.98,29.72,5.46,3.42,10.6,7.26,15.37,11.57,39.89,36.05,37.99,88.18,37.64,94.01-2.26,37.82-22.47,63.24-30.08,72.81-13.81,17.38-31.93,31.27-54.87,48.85-9.07,6.96-16.44,12.3-19.92,14.8h0s-1.39.99-1.39.99c-.34.24-.58.41-.7.49l-.02.02c-5.78,4.1-10.68,7.41-15.41,10.62-6.75,4.56-13.12,8.88-21.64,15.15-33.21,24.44-56.18,47.21-70.27,62.94,20.56-.8,49.47-3.32,83.3-10.97,21.72-4.91,44.43-9.76,69-22,19.74-9.83,59.19-29.48,84-70,34.67-56.63,27.96-133.44-6.73-186.65Z"/></g></svg>