<?xml version="1.0" encoding="UTF-8"?>
<!DOCTYPE svg PUBLIC "-//W3C//DTD SVG 1.1//EN" "http://www.w3.org/Graphics/SVG/1.1/DTD/svg11.dtd">
<svg xmlns="http://www.w3.org/2000/svg" version="1.1" width="116" height="116" viewBox="0 0 1116 1116" style="shape-rendering:geometricPrecision; text-rendering:geometricPrecision; image-rendering:optimizeQuality; fill-rule:evenodd; clip-rule:evenodd" xmlns:xlink="http://www.w3.org/1999/xlink">
<g><path style="opacity:0.114" fill="#000000" d="M 36.5,21.5 C 144.501,21.3333 252.501,21.5 360.5,22C 378.891,25.0592 389.058,35.8926 391,54.5C 391.667,157.167 391.667,259.833 391,362.5C 388.654,384.839 376.154,396.005 353.5,396C 250.5,396.667 147.5,396.667 44.5,396C 23.4629,396.092 10.9629,385.925 7,365.5C 6.33333,261.167 6.33333,156.833 7,52.5C 9.21857,34.784 19.0519,24.4507 36.5,21.5 Z"/></g>
<g><path style="opacity:1" fill="#141e2e" d="M 38.5,28.5 C 145.501,28.3333 252.501,28.5 359.5,29C 370.667,32.1667 377.833,39.3333 381,50.5C 381.667,153.833 381.667,257.167 381,360.5C 377.197,373.301 368.697,380.801 355.5,383C 251.167,383.667 146.833,383.667 42.5,383C 28.4539,380.621 19.9539,372.454 17,358.5C 16.3333,256.5 16.3333,154.5 17,52.5C 19.4723,40.199 26.639,32.199 38.5,28.5 Z"/></g>
<g><path style="opacity:1" fill="#fdfdfd" d="M 39.5,32.5 C 145.501,32.3333 251.501,32.5 357.5,33C 367.567,35.3998 374.067,41.5664 377,51.5C 377.667,154.167 377.667,256.833 377,359.5C 373.827,371.516 365.994,378.016 353.5,379C 249.833,379.667 146.167,379.667 42.5,379C 30.6667,376.5 23.5,369.333 21,357.5C 20.3333,255.833 20.3333,154.167 21,52.5C 23.5868,42.4168 29.7534,35.7502 39.5,32.5 Z"/></g>
<g><path style="opacity:1" fill="#152033" d="M 184.5,106.5 C 184.56,107.043 184.893,107.376 185.5,107.5C 186.817,101.346 186.817,95.3456 185.5,89.5C 181.162,86.1408 180.496,82.1408 183.5,77.5C 187.892,74.6737 192.059,75.0071 196,78.5C 197.48,83.1467 196.314,86.8133 192.5,89.5C 191.335,97.145 191.169,104.812 192,112.5C 192.667,113.167 193.333,113.833 194,114.5C 194.499,119.489 194.666,124.489 194.5,129.5C 192.833,129.5 191.167,129.5 189.5,129.5C 189.824,125.445 189.491,121.445 188.5,117.5C 183.348,112.848 178.348,108.015 173.5,103C 169.833,102.667 166.167,102.333 162.5,102C 157.021,96.6938 157.355,91.6938 163.5,87C 171.434,85.9322 175.268,89.4322 175,97.5C 178.036,100.704 181.203,103.704 184.5,106.5 Z"/></g>
<g><path style="opacity:1" fill="#80838d" d="M 185.5,89.5 C 186.817,95.3456 186.817,101.346 185.5,107.5C 184.893,107.376 184.56,107.043 184.5,106.5C 185.489,101.025 185.822,95.358 185.5,89.5 Z"/></g>
<g><path style="opacity:1" fill="#182233" d="M 210.5,75.5 C 218.65,74.1597 222.483,77.493 222,85.5C 221,86.8333 220,88.1667 219,89.5C 218.333,95.5 218.333,101.5 219,107.5C 222,104.5 225,101.5 228,98.5C 228.35,89.1139 232.85,85.6139 241.5,88C 246.313,92.0414 246.646,96.3747 242.5,101C 238.954,102.174 235.287,102.84 231.5,103C 226.333,108.167 221.167,113.333 216,118.5C 215.667,121.833 215.333,125.167 215,128.5C 213.333,131.167 211.667,131.167 210,128.5C 209.333,123.833 209.333,119.167 210,114.5C 210.667,113.833 211.333,113.167 212,112.5C 212.667,105.167 212.667,97.8333 212,90.5C 205.469,86.0569 204.969,81.0569 210.5,75.5 Z"/></g>
<g><path style="opacity:1" fill="#1a2435" d="M 141.5,106.5 C 146.936,105.387 150.936,107.22 153.5,112C 157.5,112.333 161.5,112.667 165.5,113C 172,119.5 178.5,126 185,132.5C 185.494,134.134 185.66,135.801 185.5,137.5C 184.127,137.657 182.793,137.49 181.5,137C 175.5,131 169.5,125 163.5,119C 158.163,117.857 153.163,118.524 148.5,121C 140.385,122.218 136.885,118.718 138,110.5C 139.376,109.295 140.542,107.962 141.5,106.5 Z"/></g>
<g><path style="opacity:1" fill="#162033" d="M 254.5,106.5 C 265.314,105.812 268.314,110.312 263.5,120C 259.043,122.338 255.043,121.838 251.5,118.5C 248.216,117.343 244.882,117.176 241.5,118C 235.167,124.333 228.833,130.667 222.5,137C 221.207,137.49 219.873,137.657 218.5,137.5C 218.372,135.345 218.872,133.345 220,131.5C 226.167,125.333 232.333,119.167 238.5,113C 242.821,112.501 247.154,112.334 251.5,112.5C 251.615,110.053 252.615,108.053 254.5,106.5 Z"/></g>
<g><path style="opacity:0.525" fill="#020302" d="M 549.5,108.5 C 580.049,105.885 607.715,113.385 632.5,131C 637.067,133.633 638.567,137.467 637,142.5C 630.5,149.667 624,156.833 617.5,164C 614.167,166 610.833,166 607.5,164C 589.433,146.482 568.1,140.815 543.5,147C 519.321,155.181 504.154,171.681 498,196.5C 493.095,220.542 498.095,242.209 513,261.5C 530.233,278.91 551.066,285.744 575.5,282C 583.731,281.151 591.565,278.985 599,275.5C 599.5,261.504 599.667,247.504 599.5,233.5C 586.163,233.667 572.829,233.5 559.5,233C 558.809,231.933 558.309,230.766 558,229.5C 557.333,220.833 557.333,212.167 558,203.5C 558.199,201.598 559.033,200.098 560.5,199C 585.5,198.333 610.5,198.333 635.5,199C 636.416,199.374 637.25,199.874 638,200.5C 638.667,233.833 638.667,267.167 638,300.5C 621.468,310.121 603.635,315.955 584.5,318C 550.529,323.476 519.529,316.476 491.5,297C 463.217,271.505 451.05,239.672 455,201.5C 462.886,146.446 494.386,115.446 549.5,108.5 Z"/></g>
<g><path style="opacity:0.52" fill="#010202" d="M 1368.5,108.5 C 1389.8,106.909 1409.47,111.742 1427.5,123C 1431.67,125.833 1435.17,129.333 1438,133.5C 1438.75,136.303 1438.42,138.97 1437,141.5C 1429.86,147.635 1423.03,154.135 1416.5,161C 1414.17,161.667 1411.83,161.667 1409.5,161C 1394.51,142.602 1376.51,138.935 1355.5,150C 1346.33,157.545 1344.17,166.712 1349,177.5C 1352.25,181.422 1356.08,184.588 1360.5,187C 1375.45,192.487 1390.45,197.82 1405.5,203C 1428.41,213.246 1440.08,230.913 1440.5,256C 1438.6,291.787 1419.94,312.453 1384.5,318C 1357.23,322.348 1332.56,316.348 1310.5,300C 1305.23,296.081 1301.57,291.081 1299.5,285C 1299.61,283.105 1300.28,281.438 1301.5,280C 1308.83,274 1316.17,268 1323.5,262C 1325.83,261.333 1328.17,261.333 1330.5,262C 1344.47,281.436 1362.81,287.436 1385.5,280C 1398.46,272.916 1402.63,262.416 1398,248.5C 1393.36,242.532 1387.52,238.032 1380.5,235C 1367.02,230.728 1353.68,226.061 1340.5,221C 1312.48,207.459 1301.65,185.292 1308,154.5C 1313.63,133.536 1326.8,119.703 1347.5,113C 1354.57,111.155 1361.57,109.655 1368.5,108.5 Z"/></g>
<g><path style="opacity:0.52" fill="#010102" d="M 1650.5,108.5 C 1671.79,106.906 1691.46,111.739 1709.5,123C 1713.67,125.833 1717.17,129.333 1720,133.5C 1720.75,136.303 1720.42,138.97 1719,141.5C 1711.86,147.635 1705.03,154.135 1698.5,161C 1696.17,161.667 1693.83,161.667 1691.5,161C 1676.51,142.602 1658.51,138.935 1637.5,150C 1628.22,157.502 1626.06,166.669 1631,177.5C 1634.25,181.422 1638.08,184.588 1642.5,187C 1657.45,192.487 1672.45,197.82 1687.5,203C 1715.27,216.157 1726.44,237.991 1721,268.5C 1714.06,297.093 1695.9,313.593 1666.5,318C 1639.79,322.238 1615.46,316.572 1593.5,301C 1590,297.5 1586.5,294 1583,290.5C 1580.91,286.879 1581.08,283.379 1583.5,280C 1590.83,274 1598.17,268 1605.5,262C 1607.83,261.333 1610.17,261.333 1612.5,262C 1626.47,281.436 1644.81,287.436 1667.5,280C 1684.07,269.744 1686.41,257.077 1674.5,242C 1670.76,239.268 1666.76,236.934 1662.5,235C 1649.76,230.864 1637.09,226.531 1624.5,222C 1595.15,208.81 1583.65,186.31 1590,154.5C 1595.63,133.536 1608.8,119.703 1629.5,113C 1636.57,111.155 1643.57,109.655 1650.5,108.5 Z"/></g>
<g><path style="opacity:0.551" fill="#000000" d="M 702.5,113.5 C 745.501,113.333 788.501,113.5 831.5,114C 832,114.5 832.5,115 833,115.5C 833.667,126.167 833.667,136.833 833,147.5C 832.5,148 832,148.5 831.5,149C 800.835,149.5 770.168,149.667 739.5,149.5C 739.5,163.833 739.5,178.167 739.5,192.5C 768.865,192.191 798.198,192.524 827.5,193.5C 828.596,204.133 828.763,214.8 828,225.5C 827.5,226.667 826.667,227.5 825.5,228C 796.835,228.5 768.169,228.667 739.5,228.5C 739.5,245.167 739.5,261.833 739.5,278.5C 772.223,277.845 804.723,278.511 837,280.5C 837.667,291.167 837.667,301.833 837,312.5C 836.5,313 836,313.5 835.5,314C 791.167,314.667 746.833,314.667 702.5,314C 702,313.5 701.5,313 701,312.5C 700.333,246.833 700.333,181.167 701,115.5C 701.717,114.956 702.217,114.289 702.5,113.5 Z"/></g>
<g><path style="opacity:0.529" fill="#000000" d="M 891.5,113.5 C 905.504,113.333 919.504,113.5 933.5,114C 934.416,114.374 935.25,114.874 936,115.5C 964.667,159.5 993.333,203.5 1022,247.5C 1022.33,203.5 1022.67,159.5 1023,115.5C 1023.5,115 1024,114.5 1024.5,114C 1036.17,113.333 1047.83,113.333 1059.5,114C 1060,114.5 1060.5,115 1061,115.5C 1061.67,181.167 1061.67,246.833 1061,312.5C 1060.5,313 1060,313.5 1059.5,314C 1045.83,314.667 1032.17,314.667 1018.5,314C 988.273,268.77 958.44,223.27 929,177.5C 928.667,222.5 928.333,267.5 928,312.5C 927.5,313 927,313.5 926.5,314C 914.833,314.667 903.167,314.667 891.5,314C 891,313.5 890.5,313 890,312.5C 889.333,246.833 889.333,181.167 890,115.5C 890.717,114.956 891.217,114.289 891.5,113.5 Z"/></g>
<g><path style="opacity:0.53" fill="#020303" d="M 1125.5,113.5 C 1168.83,113.333 1212.17,113.5 1255.5,114C 1256,114.5 1256.5,115 1257,115.5C 1257.67,126.167 1257.67,136.833 1257,147.5C 1256.25,148.126 1255.42,148.626 1254.5,149C 1224.17,149.5 1193.84,149.667 1163.5,149.5C 1163.5,163.833 1163.5,178.167 1163.5,192.5C 1191.84,192.333 1220.17,192.5 1248.5,193C 1249.42,193.374 1250.25,193.874 1251,194.5C 1251.67,205.167 1251.67,215.833 1251,226.5C 1250.5,227 1250,227.5 1249.5,228C 1220.84,228.5 1192.17,228.667 1163.5,228.5C 1163.5,245.167 1163.5,261.833 1163.5,278.5C 1195.5,278.333 1227.5,278.5 1259.5,279C 1260,279.5 1260.5,280 1261,280.5C 1261.67,291.167 1261.67,301.833 1261,312.5C 1260.5,313 1260,313.5 1259.5,314C 1214.79,314.828 1170.13,314.661 1125.5,313.5C 1124.72,312.271 1124.22,310.938 1124,309.5C 1123.33,245.5 1123.33,181.5 1124,117.5C 1124.41,116.099 1124.91,114.766 1125.5,113.5 Z"/></g>
<g><path style="opacity:0.521" fill="#010203" d="M 1495.5,113.5 C 1507.55,113.187 1519.55,113.521 1531.5,114.5C 1532.67,180.497 1532.83,246.497 1532,312.5C 1531.5,313 1531,313.5 1530.5,314C 1518.83,314.667 1507.17,314.667 1495.5,314C 1495,313.5 1494.5,313 1494,312.5C 1493.33,246.833 1493.33,181.167 1494,115.5C 1494.72,114.956 1495.22,114.289 1495.5,113.5 Z"/></g>
<g><path style="opacity:1" fill="#516b57" d="M 596.5,119.5 C 592.167,119.5 587.833,119.5 583.5,119.5C 583.5,119.167 583.5,118.833 583.5,118.5C 575.925,116.574 568.092,115.574 560,115.5C 551.166,116.215 542.333,116.881 533.5,117.5C 554.669,111.955 575.669,112.621 596.5,119.5 Z"/></g>
<g><path style="opacity:1" fill="#486460" d="M 1426.5,135.5 C 1425.52,134.185 1424.52,132.852 1423.5,131.5C 1420.53,131.005 1418.2,129.505 1416.5,127C 1412.02,125.008 1407.36,123.508 1402.5,122.5C 1398.59,120.857 1394.59,119.524 1390.5,118.5C 1389.39,117.71 1388.06,117.21 1386.5,117C 1375.39,115.58 1364.72,116.746 1354.5,120.5C 1351.05,120.814 1347.72,121.648 1344.5,123C 1341.28,125.777 1337.62,127.777 1333.5,129C 1331,131.5 1328.5,134 1326,136.5C 1322.92,141.952 1319.75,147.285 1316.5,152.5C 1321.37,137.456 1331.04,126.622 1345.5,120C 1364.6,113.437 1383.94,112.77 1403.5,118C 1413.15,121.151 1421.48,126.318 1428.5,133.5C 1428.14,134.522 1427.48,135.189 1426.5,135.5 Z"/></g>
<g><path style="opacity:1" fill="#69918a" d="M 1390.5,118.5 C 1379.74,118.059 1369.07,118.726 1358.5,120.5C 1357.17,120.5 1355.83,120.5 1354.5,120.5C 1364.72,116.746 1375.39,115.58 1386.5,117C 1388.06,117.21 1389.39,117.71 1390.5,118.5 Z"/></g>
<g><path style="opacity:1" fill="#42584b" d="M 825.5,121.5 C 806.217,120.179 786.717,119.512 767,119.5C 747.488,119.5 728.322,120.167 709.5,121.5C 709.167,121.5 708.833,121.5 708.5,121.5C 708.5,120.5 708.5,119.5 708.5,118.5C 747.5,118.5 786.5,118.5 825.5,118.5C 825.5,119.5 825.5,120.5 825.5,121.5 Z"/></g>
<g><path style="opacity:1" fill="#3a4f49" d="M 1132.5,119.5 C 1171.33,118.501 1210.33,118.168 1249.5,118.5C 1249.82,125.022 1249.49,131.355 1248.5,137.5C 1248.5,132.833 1248.5,128.167 1248.5,123.5C 1248.5,122.833 1248.5,122.167 1248.5,121.5C 1210.18,119.506 1171.51,118.839 1132.5,119.5 Z"/></g>
<g><path style="opacity:1" fill="#64836d" d="M 583.5,118.5 C 570.514,117.506 557.514,117.339 544.5,118C 536.496,119.836 528.829,122.336 521.5,125.5C 508.419,129.643 497.253,136.976 488,147.5C 485.19,150.464 483.024,153.798 481.5,157.5C 476.781,161.912 473.281,167.245 471,173.5C 469.922,177.563 468.755,181.563 467.5,185.5C 466.833,186.167 466.167,186.833 465.5,187.5C 474.301,150.699 496.968,127.365 533.5,117.5C 542.333,116.881 551.166,116.215 560,115.5C 568.092,115.574 575.925,116.574 583.5,118.5 Z"/></g>
<g><path style="opacity:1" fill="#597665" d="M 825.5,121.5 C 825.5,126.833 825.5,132.167 825.5,137.5C 825.167,137.5 824.833,137.5 824.5,137.5C 824.821,132.305 824.487,127.305 823.5,122.5C 785.67,121.501 747.67,121.168 709.5,121.5C 728.322,120.167 747.488,119.5 767,119.5C 786.717,119.512 806.217,120.179 825.5,121.5 Z"/></g>
<g><path style="opacity:1" fill="#4b665e" d="M 1132.5,119.5 C 1171.51,118.839 1210.18,119.506 1248.5,121.5C 1209.83,120.167 1171.17,120.167 1132.5,121.5C 1132.5,120.833 1132.5,120.167 1132.5,119.5 Z"/></g>
<g><path style="opacity:1" fill="#415b5a" d="M 1524.5,122.5 C 1517.73,121.191 1511.07,121.191 1504.5,122.5C 1503.83,122.5 1503.5,122.833 1503.5,123.5C 1503.17,123.5 1502.83,123.5 1502.5,123.5C 1502.5,121.833 1502.5,120.167 1502.5,118.5C 1509.83,118.5 1517.17,118.5 1524.5,118.5C 1524.5,119.833 1524.5,121.167 1524.5,122.5 Z"/></g>
<g><path style="opacity:1" fill="#5b7e7a" d="M 1248.5,121.5 C 1248.5,122.167 1248.5,122.833 1248.5,123.5C 1210.24,122.506 1171.91,122.173 1133.5,122.5C 1133.5,131.167 1133.5,139.833 1133.5,148.5C 1133.5,178.5 1133.5,208.5 1133.5,238.5C 1133.5,259.833 1133.5,281.167 1133.5,302.5C 1133.17,302.5 1132.83,302.5 1132.5,302.5C 1132.5,242.167 1132.5,181.833 1132.5,121.5C 1171.17,120.167 1209.83,120.167 1248.5,121.5 Z"/></g>
<g><path style="opacity:1" fill="#69949a" d="M 1708.5,135.5 C 1706.83,137.833 1704.83,139.833 1702.5,141.5C 1702.39,140.883 1702.06,140.383 1701.5,140C 1704.01,138.859 1705.18,137.026 1705,134.5C 1700.72,132.277 1696.89,129.443 1693.5,126C 1686.78,124.094 1680.11,122.261 1673.5,120.5C 1673.29,119.914 1672.96,119.414 1672.5,119C 1663.48,118.319 1654.48,118.486 1645.5,119.5C 1646.61,118.71 1647.94,118.21 1649.5,118C 1657.5,117.333 1665.5,117.333 1673.5,118C 1683.42,120.888 1693.08,124.221 1702.5,128C 1705.12,130.106 1707.12,132.606 1708.5,135.5 Z"/></g>
<g><path style="opacity:1" fill="#709580" d="M 708.5,121.5 C 708.833,121.5 709.167,121.5 709.5,121.5C 747.67,121.168 785.67,121.501 823.5,122.5C 785.996,122.168 748.663,122.502 711.5,123.5C 710.833,123.5 710.5,123.833 710.5,124.5C 709.502,150.328 709.169,176.328 709.5,202.5C 709.167,202.5 708.833,202.5 708.5,202.5C 708.5,175.5 708.5,148.5 708.5,121.5 Z"/></g>
<g><path style="opacity:1" fill="#90c6c1" d="M 1390.5,118.5 C 1394.59,119.524 1398.59,120.857 1402.5,122.5C 1404.67,124.511 1407.33,125.678 1410.5,126C 1414.28,129.396 1418.28,132.563 1422.5,135.5C 1420.2,137.769 1417.53,138.102 1414.5,136.5C 1414.5,137.5 1414.5,138.5 1414.5,139.5C 1411.97,138.212 1409.47,138.212 1407,139.5C 1406.72,137.114 1405.72,136.448 1404,137.5C 1393.39,131.65 1382.23,129.984 1370.5,132.5C 1367.48,132.704 1364.48,133.037 1361.5,133.5C 1359.86,133.714 1358.36,133.38 1357,132.5C 1353.46,135.36 1349.63,137.86 1345.5,140C 1341.59,142.673 1338.76,146.173 1337,150.5C 1336.61,149.572 1335.95,148.905 1335,148.5C 1333.77,149.615 1332.6,149.615 1331.5,148.5C 1330.81,149.025 1330.31,149.692 1330,150.5C 1327.76,150.452 1325.6,150.452 1323.5,150.5C 1327.56,143.513 1332.56,136.68 1338.5,130C 1345.18,126.698 1351.85,123.532 1358.5,120.5C 1369.07,118.726 1379.74,118.059 1390.5,118.5 Z"/></g>
<g><path style="opacity:1" fill="#7eb3bb" d="M 1702.5,141.5 C 1700.36,144.165 1697.86,146.498 1695,148.5C 1682.1,134.756 1666.27,129.589 1647.5,133C 1637.21,135.301 1629.21,140.801 1623.5,149.5C 1621.91,149.628 1620.58,150.295 1619.5,151.5C 1618.24,153.453 1617.07,155.453 1616,157.5C 1613.32,157.177 1610.32,157.177 1607,157.5C 1606.67,158.167 1606.33,158.833 1606,159.5C 1605,158.167 1604,158.167 1603,159.5C 1601.87,157.655 1601.37,155.655 1601.5,153.5C 1602.65,150.053 1603.98,146.72 1605.5,143.5C 1609.6,136.233 1615.27,130.4 1622.5,126C 1628.25,124.377 1633.92,122.377 1639.5,120C 1641.47,119.505 1643.47,119.338 1645.5,119.5C 1654.48,118.486 1663.48,118.319 1672.5,119C 1672.96,119.414 1673.29,119.914 1673.5,120.5C 1680.11,122.261 1686.78,124.094 1693.5,126C 1696.89,129.443 1700.72,132.277 1705,134.5C 1705.18,137.026 1704.01,138.859 1701.5,140C 1702.06,140.383 1702.39,140.883 1702.5,141.5 Z"/></g>
<g><path style="opacity:1" fill="#b5eec7" d="M 623.5,140.5 C 619.827,144.506 616.16,148.506 612.5,152.5C 593.797,136.569 572.13,130.402 547.5,134C 534.5,136.835 522.833,142.335 512.5,150.5C 509.049,150.526 506.382,152.026 504.5,155C 501.57,155.606 498.737,156.44 496,157.5C 494.853,156.542 493.853,156.875 493,158.5C 491.026,158.353 489.026,158.019 487,157.5C 486.549,159.929 485.715,160.096 484.5,158C 489.089,152.142 493.423,146.142 497.5,140C 503.987,135.588 510.987,131.921 518.5,129C 519.71,127.961 520.71,126.794 521.5,125.5C 530.862,123.773 540.196,121.94 549.5,120C 559.5,119.333 569.5,119.333 579.5,120C 589.043,123.515 598.71,126.848 608.5,130C 610.93,130.643 612.597,132.143 613.5,134.5C 616.5,135.667 619.5,136.833 622.5,138C 623.252,138.671 623.586,139.504 623.5,140.5 Z"/></g>
<g><path style="opacity:1" fill="#8cbba1" d="M 711.5,123.5 C 748.663,122.502 785.996,122.168 823.5,122.5C 824.487,127.305 824.821,132.305 824.5,137.5C 824.167,137.5 823.833,137.5 823.5,137.5C 823.8,132.901 823.467,128.401 822.5,124C 785.502,123.5 748.502,123.333 711.5,123.5 Z"/></g>
<g><path style="opacity:1" fill="#79a69b" d="M 1052.5,206.5 C 1052.17,206.5 1051.83,206.5 1051.5,206.5C 1051.5,194.167 1051.5,181.833 1051.5,169.5C 1051.83,154.324 1051.5,139.324 1050.5,124.5C 1044.83,123.167 1039.17,123.167 1033.5,124.5C 1032.62,148 1032.62,171.667 1033.5,195.5C 1033.5,200.5 1033.5,205.5 1033.5,210.5C 1033.17,210.5 1032.83,210.5 1032.5,210.5C 1032.83,198.322 1032.5,186.322 1031.5,174.5C 1031.5,157.5 1031.5,140.5 1031.5,123.5C 1032.29,123.217 1032.96,122.717 1033.5,122C 1039.75,121.191 1045.92,121.358 1052,122.5C 1052.5,150.498 1052.67,178.498 1052.5,206.5 Z"/></g>
<g><path style="opacity:1" fill="#466366" d="M 1708.5,135.5 C 1707.12,132.606 1705.12,130.106 1702.5,128C 1693.08,124.221 1683.42,120.888 1673.5,118C 1665.5,117.333 1657.5,117.333 1649.5,118C 1647.94,118.21 1646.61,118.71 1645.5,119.5C 1643.47,119.338 1641.47,119.505 1639.5,120C 1633.92,122.377 1628.25,124.377 1622.5,126C 1615.27,130.4 1609.6,136.233 1605.5,143.5C 1602.93,146.319 1600.59,149.319 1598.5,152.5C 1603.37,137.456 1613.04,126.622 1627.5,120C 1653.98,109.977 1679.31,112.31 1703.5,127C 1705.76,128.715 1707.93,130.548 1710,132.5C 1710.58,133.998 1710.08,134.998 1708.5,135.5 Z"/></g>
<g><path style="opacity:1" fill="#87b8ab" d="M 1248.5,123.5 C 1248.5,128.167 1248.5,132.833 1248.5,137.5C 1247.83,137.5 1247.17,137.5 1246.5,137.5C 1246.8,133.233 1246.46,129.066 1245.5,125C 1208.83,124.5 1172.17,124.333 1135.5,124.5C 1135.5,131.5 1135.5,138.5 1135.5,145.5C 1134.6,146.209 1134.26,147.209 1134.5,148.5C 1134.17,148.5 1133.83,148.5 1133.5,148.5C 1133.5,139.833 1133.5,131.167 1133.5,122.5C 1171.91,122.173 1210.24,122.506 1248.5,123.5 Z"/></g>
<g><path style="opacity:1" fill="#61806a" d="M 583.5,119.5 C 587.833,119.5 592.167,119.5 596.5,119.5C 607.691,122.846 617.857,128.179 627,135.5C 627.585,136.998 627.085,137.998 625.5,138.5C 625.063,136.926 624.063,135.759 622.5,135C 610.243,127.858 597.243,122.691 583.5,119.5 Z"/></g>
<g><path style="opacity:1" fill="#a4dcc5" d="M 927.5,123.5 C 927.973,124.906 928.973,125.573 930.5,125.5C 931.079,128.331 932.412,130.664 934.5,132.5C 934.257,135.883 934.924,139.049 936.5,142C 935.874,142.75 935.374,143.584 935,144.5C 933.853,143.542 932.853,143.875 932,145.5C 931,144.167 930,144.167 929,145.5C 928.667,144.833 928.333,144.167 928,143.5C 926.908,146.986 925.075,147.319 922.5,144.5C 921.52,145.981 920.353,147.315 919,148.5C 917.62,145.942 916.12,145.942 914.5,148.5C 913.808,147.975 913.308,147.308 913,146.5C 910.832,148.455 908.498,149.121 906,148.5C 905.667,149.167 905.333,149.833 905,150.5C 904.02,149.019 902.853,147.685 901.5,146.5C 900.187,138.942 900.187,131.442 901.5,124C 910.16,123.5 918.827,123.334 927.5,123.5 Z"/></g>
<g><path style="opacity:1" fill="#98cfc3" d="M 1246.5,137.5 C 1215.48,136.841 1184.82,137.508 1154.5,139.5C 1153.54,139.953 1152.71,140.619 1152,141.5C 1151.67,147.833 1151.33,154.167 1151,160.5C 1150.95,163.329 1149.95,165.663 1148,167.5C 1145.92,168.378 1143.59,168.378 1141,167.5C 1139.91,168.293 1138.75,168.96 1137.5,169.5C 1135.73,161.616 1135.06,153.616 1135.5,145.5C 1135.5,138.5 1135.5,131.5 1135.5,124.5C 1172.17,124.333 1208.83,124.5 1245.5,125C 1246.46,129.066 1246.8,133.233 1246.5,137.5 Z"/></g>
<g><path style="opacity:1" fill="#ace5c7" d="M 711.5,123.5 C 748.502,123.333 785.502,123.5 822.5,124C 823.467,128.401 823.8,132.901 823.5,137.5C 792.149,136.841 761.149,137.508 730.5,139.5C 729.25,139.577 728.417,140.244 728,141.5C 727.333,147.5 726.667,153.5 726,159.5C 725.282,158.549 724.449,158.383 723.5,159C 724.451,159.718 724.617,160.551 724,161.5C 721.446,159.076 718.946,159.076 716.5,161.5C 715.328,161.081 714.328,160.415 713.5,159.5C 712.874,153.702 712.207,148.036 711.5,142.5C 711.5,141.833 711.167,141.5 710.5,141.5C 710.5,135.833 710.5,130.167 710.5,124.5C 710.5,123.833 710.833,123.5 711.5,123.5 Z"/></g>
<g><path style="opacity:1" fill="#68908d" d="M 1354.5,120.5 C 1347.43,124.538 1340.1,128.372 1332.5,132C 1323.99,140.035 1318.99,149.869 1317.5,161.5C 1316.51,165.97 1316.18,170.637 1316.5,175.5C 1315.22,167.962 1315.22,160.295 1316.5,152.5C 1319.75,147.285 1322.92,141.952 1326,136.5C 1328.5,134 1331,131.5 1333.5,129C 1337.62,127.777 1341.28,125.777 1344.5,123C 1347.72,121.648 1351.05,120.814 1354.5,120.5 Z"/></g>
<g><path style="opacity:1" fill="#a0d3b0" d="M 583.5,118.5 C 583.5,118.833 583.5,119.167 583.5,119.5C 597.243,122.691 610.243,127.858 622.5,135C 624.063,135.759 625.063,136.926 625.5,138.5C 625.167,139.5 624.5,140.167 623.5,140.5C 623.586,139.504 623.252,138.671 622.5,138C 619.5,136.833 616.5,135.667 613.5,134.5C 612.597,132.143 610.93,130.643 608.5,130C 598.71,126.848 589.043,123.515 579.5,120C 569.5,119.333 559.5,119.333 549.5,120C 540.196,121.94 530.862,123.773 521.5,125.5C 528.829,122.336 536.496,119.836 544.5,118C 557.514,117.339 570.514,117.506 583.5,118.5 Z"/></g>
<g><path style="opacity:1" fill="#5a796e" d="M 929.5,119.5 C 942.427,139.025 955.093,158.692 967.5,178.5C 965.673,176.868 963.839,175.201 962,173.5C 958.97,168.084 955.47,163.084 951.5,158.5C 946.698,149.346 941.032,140.679 934.5,132.5C 932.412,130.664 931.079,128.331 930.5,125.5C 930.489,123.983 929.823,122.816 928.5,122C 918.506,121.5 908.506,121.334 898.5,121.5C 908.446,119.525 918.779,118.858 929.5,119.5 Z"/></g>
<g><path style="opacity:1" fill="#192336" d="M 197.5,174.5 C 197.56,175.043 197.893,175.376 198.5,175.5C 199.816,169.68 199.816,164.013 198.5,158.5C 194.097,157.23 191.097,154.397 189.5,150C 183.833,149.667 178.167,149.333 172.5,149C 169.5,146 166.5,143 163.5,140C 158.467,139.171 153.467,139.338 148.5,140.5C 143.675,145.784 138.842,145.784 134,140.5C 131.662,131.175 135.162,127.341 144.5,129C 146.361,130.028 147.695,131.528 148.5,133.5C 154.472,134.33 160.472,134.83 166.5,135C 169.5,138 172.5,141 175.5,144C 180.155,144.499 184.821,144.666 189.5,144.5C 190.957,137.882 195.124,134.215 202,133.5C 208.876,134.215 213.043,137.882 214.5,144.5C 219.179,144.666 223.845,144.499 228.5,144C 231.5,141 234.5,138 237.5,135C 243.196,134.83 248.862,134.33 254.5,133.5C 259.191,127.191 264.358,126.858 270,132.5C 271.141,143.014 266.641,146.514 256.5,143C 255.833,142 255.167,141 254.5,140C 249.833,139.333 245.167,139.333 240.5,140C 237.167,143.333 233.833,146.667 230.5,150C 224.804,150.17 219.138,150.67 213.5,151.5C 212.167,154.833 209.833,157.167 206.5,158.5C 205.337,164.137 205.17,169.804 206,175.5C 213.167,168.333 220.333,161.167 227.5,154C 241.167,153.333 254.833,153.333 268.5,154C 269.833,155.667 269.833,157.333 268.5,159C 255.5,159.333 242.5,159.667 229.5,160C 221.613,167.887 213.779,175.721 206,183.5C 205.333,186.5 205.333,189.5 206,192.5C 212.179,195.687 214.179,200.687 212,207.5C 206.48,215.955 200.146,216.622 193,209.5C 188.505,201.823 190.338,196.156 198.5,192.5C 199.655,189.554 199.821,186.554 199,183.5C 191.167,175.667 183.333,167.833 175.5,160C 161.833,159.667 148.167,159.333 134.5,159C 133.14,157.062 133.473,155.396 135.5,154C 149.167,153.333 162.833,153.333 176.5,154C 183.961,160.39 190.961,167.223 197.5,174.5 Z"/></g>
<g><path style="opacity:1" fill="#82b6b4" d="M 1402.5,122.5 C 1407.36,123.508 1412.02,125.008 1416.5,127C 1418.2,129.505 1420.53,131.005 1423.5,131.5C 1424.52,132.852 1425.52,134.185 1426.5,135.5C 1422.49,140.173 1418.16,144.506 1413.5,148.5C 1401.97,136.096 1387.64,130.763 1370.5,132.5C 1382.23,129.984 1393.39,131.65 1404,137.5C 1405.72,136.448 1406.72,137.114 1407,139.5C 1409.47,138.212 1411.97,138.212 1414.5,139.5C 1414.5,138.5 1414.5,137.5 1414.5,136.5C 1417.53,138.102 1420.2,137.769 1422.5,135.5C 1418.28,132.563 1414.28,129.396 1410.5,126C 1407.33,125.678 1404.67,124.511 1402.5,122.5 Z"/></g>
<g><path style="opacity:1" fill="#394d43" d="M 823.5,137.5 C 823.833,137.5 824.167,137.5 824.5,137.5C 824.833,137.5 825.167,137.5 825.5,137.5C 794.338,138.498 763.004,138.832 731.5,138.5C 731.5,158.5 731.5,178.5 731.5,198.5C 730.503,179.341 730.17,160.007 730.5,140.5C 730.5,140.167 730.5,139.833 730.5,139.5C 761.149,137.508 792.149,136.841 823.5,137.5 Z"/></g>
<g><path style="opacity:1" fill="#eeeff0" d="M 199.5,139.5 C 206.88,139.043 209.713,142.376 208,149.5C 204.049,154.818 200.049,154.818 196,149.5C 194.756,145.191 195.923,141.858 199.5,139.5 Z"/></g>
<g><path style="opacity:1" fill="#9bd2c3" d="M 1050.5,124.5 C 1050.83,135.877 1050.33,147.21 1049,158.5C 1047.31,163.024 1044.64,164.357 1041,162.5C 1039.56,164.155 1037.72,164.822 1035.5,164.5C 1033.95,151.218 1033.28,137.885 1033.5,124.5C 1039.17,123.167 1044.83,123.167 1050.5,124.5 Z"/></g>
<g><path style="opacity:1" fill="#9bd2c1" d="M 927.5,123.5 C 918.827,123.334 910.16,123.5 901.5,124C 900.187,131.442 900.187,138.942 901.5,146.5C 902.853,147.685 904.02,149.019 905,150.5C 905.333,149.833 905.667,149.167 906,148.5C 908.498,149.121 910.832,148.455 913,146.5C 913.308,147.308 913.808,147.975 914.5,148.5C 916.12,145.942 917.62,145.942 919,148.5C 920.353,147.315 921.52,145.981 922.5,144.5C 925.075,147.319 926.908,146.986 928,143.5C 928.333,144.167 928.667,144.833 929,145.5C 930,144.167 931,144.167 932,145.5C 932.853,143.875 933.853,143.542 935,144.5C 935.374,143.584 935.874,142.75 936.5,142C 934.924,139.049 934.257,135.883 934.5,132.5C 941.032,140.679 946.698,149.346 951.5,158.5C 951.343,159.873 951.51,161.207 952,162.5C 955.749,167.662 959.249,172.996 962.5,178.5C 960.515,178.604 959.015,179.937 958,182.5C 956.609,180.285 954.943,180.285 953,182.5C 950.959,182.643 948.792,182.309 946.5,181.5C 945.308,179.258 944.308,176.925 943.5,174.5C 941.14,172.338 938.807,170.338 936.5,168.5C 932.167,162.813 928.167,156.813 924.5,150.5C 923.311,149.571 921.978,149.238 920.5,149.5C 919.596,150.209 919.263,151.209 919.5,152.5C 918.833,152.5 918.5,152.833 918.5,153.5C 917.243,163.678 916.077,174.011 915,184.5C 914.333,181.833 913.667,181.833 913,184.5C 912.667,184.167 912.333,183.833 912,183.5C 909.198,185.176 906.364,185.842 903.5,185.5C 902.157,179.04 900.824,172.707 899.5,166.5C 899.5,151.833 899.5,137.167 899.5,122.5C 909.015,122.173 918.348,122.506 927.5,123.5 Z"/></g>
<g><path style="opacity:1" fill="#7aa597" d="M 898.5,121.5 C 908.506,121.334 918.506,121.5 928.5,122C 929.823,122.816 930.489,123.983 930.5,125.5C 928.973,125.573 927.973,124.906 927.5,123.5C 918.348,122.506 909.015,122.173 899.5,122.5C 899.5,137.167 899.5,151.833 899.5,166.5C 899.5,183.833 899.5,201.167 899.5,218.5C 899.167,218.5 898.833,218.5 898.5,218.5C 898.5,186.167 898.5,153.833 898.5,121.5 Z"/></g>
<g><path style="opacity:1" fill="#ade5c3" d="M 521.5,125.5 C 520.71,126.794 519.71,127.961 518.5,129C 510.987,131.921 503.987,135.588 497.5,140C 493.423,146.142 489.089,152.142 484.5,158C 485.715,160.096 486.549,159.929 487,157.5C 489.026,158.019 491.026,158.353 493,158.5C 493.853,156.875 494.853,156.542 496,157.5C 498.737,156.44 501.57,155.606 504.5,155C 506.382,152.026 509.049,150.526 512.5,150.5C 510.167,153.167 507.833,155.833 505.5,158.5C 502.5,158.833 500.833,160.5 500.5,163.5C 499.5,163.5 498.5,163.5 497.5,163.5C 494.659,169.699 491.326,175.699 487.5,181.5C 487.709,182.086 488.043,182.586 488.5,183C 486.04,183.396 484.04,184.563 482.5,186.5C 480.833,186.5 479.167,186.5 477.5,186.5C 475.65,187.242 474.984,188.242 475.5,189.5C 474.572,187.665 473.406,187.332 472,188.5C 469.904,187.285 470.071,186.451 472.5,186C 472.043,185.586 471.709,185.086 471.5,184.5C 474.869,175.38 478.202,166.38 481.5,157.5C 483.024,153.798 485.19,150.464 488,147.5C 497.253,136.976 508.419,129.643 521.5,125.5 Z"/></g>
<g><path style="opacity:1" fill="#87bdbe" d="M 1354.5,120.5 C 1355.83,120.5 1357.17,120.5 1358.5,120.5C 1351.85,123.532 1345.18,126.698 1338.5,130C 1332.56,136.68 1327.56,143.513 1323.5,150.5C 1325.6,150.452 1327.76,150.452 1330,150.5C 1330.31,149.692 1330.81,149.025 1331.5,148.5C 1332.6,149.615 1333.77,149.615 1335,148.5C 1335.95,148.905 1336.61,149.572 1337,150.5C 1338.76,146.173 1341.59,142.673 1345.5,140C 1349.63,137.86 1353.46,135.36 1357,132.5C 1358.36,133.38 1359.86,133.714 1361.5,133.5C 1352.77,137.032 1345.77,142.698 1340.5,150.5C 1339.5,150.47 1338.84,150.97 1338.5,152C 1337.86,155.402 1336.7,158.569 1335,161.5C 1334.96,168.004 1334.29,174.338 1333,180.5C 1332.37,178.009 1331.54,178.009 1330.5,180.5C 1329.81,179.975 1329.31,179.308 1329,178.5C 1321.93,183.459 1318.26,181.459 1318,172.5C 1317.5,168.848 1317.33,165.182 1317.5,161.5C 1318.99,149.869 1323.99,140.035 1332.5,132C 1340.1,128.372 1347.43,124.538 1354.5,120.5 Z"/></g>
<g><path style="opacity:1" fill="#162133" d="M 165.5,166.5 C 173.656,165.821 177.156,169.488 176,177.5C 173.774,181.861 170.274,183.361 165.5,182C 160.175,176.669 160.175,171.502 165.5,166.5 Z"/></g>
<g><path style="opacity:1" fill="#131e30" d="M 231.5,166.5 C 240.152,165.986 243.652,169.986 242,178.5C 237.333,183.833 232.667,183.833 228,178.5C 226.593,173.643 227.76,169.643 231.5,166.5 Z"/></g>
<g><path style="opacity:1" fill="#608a95" d="M 1605.5,143.5 C 1603.98,146.72 1602.65,150.053 1601.5,153.5C 1600.73,154.263 1600.23,155.263 1600,156.5C 1599.33,164.167 1599.33,171.833 1600,179.5C 1600.51,180.527 1601.01,181.527 1601.5,182.5C 1601.5,183.833 1601.5,185.167 1601.5,186.5C 1599.87,183.442 1598.7,180.109 1598,176.5C 1597.23,168.452 1597.4,160.452 1598.5,152.5C 1600.59,149.319 1602.93,146.319 1605.5,143.5 Z"/></g>
<g><path style="opacity:1" fill="#b3b7bb" d="M 198.5,158.5 C 199.816,164.013 199.816,169.68 198.5,175.5C 197.893,175.376 197.56,175.043 197.5,174.5C 198.488,169.36 198.821,164.026 198.5,158.5 Z"/></g>
<g><path style="opacity:1" fill="#a1d9c4" d="M 730.5,139.5 C 730.5,139.833 730.5,140.167 730.5,140.5C 729.596,141.209 729.263,142.209 729.5,143.5C 728.667,160.707 727.501,178.04 726,195.5C 724.883,195.665 723.716,195.998 722.5,196.5C 720.539,194.457 719.039,195.123 718,198.5C 717.323,196.311 716.156,195.978 714.5,197.5C 713.749,196.624 713.249,195.624 713,194.5C 711.64,177.199 711.14,159.865 711.5,142.5C 712.207,148.036 712.874,153.702 713.5,159.5C 714.328,160.415 715.328,161.081 716.5,161.5C 718.946,159.076 721.446,159.076 724,161.5C 724.617,160.551 724.451,159.718 723.5,159C 724.449,158.383 725.282,158.549 726,159.5C 726.667,153.5 727.333,147.5 728,141.5C 728.417,140.244 729.25,139.577 730.5,139.5 Z"/></g>
<g><path style="opacity:1" fill="#51747c" d="M 1504.5,122.5 C 1511.07,121.191 1517.73,121.191 1524.5,122.5C 1524.5,155.167 1524.5,187.833 1524.5,220.5C 1524.17,220.5 1523.83,220.5 1523.5,220.5C 1523.5,217.833 1523.5,215.167 1523.5,212.5C 1523.5,201.833 1523.5,191.167 1523.5,180.5C 1523.83,161.326 1523.5,142.326 1522.5,123.5C 1516.69,122.51 1510.69,122.177 1504.5,122.5 Z"/></g>
<g><path style="opacity:1" fill="#75aaba" d="M 1623.5,149.5 C 1621.62,152.603 1620.28,155.937 1619.5,159.5C 1618.18,168.038 1618.18,176.705 1619.5,185.5C 1618.73,186.711 1617.89,186.711 1617,185.5C 1616.33,186.167 1615.67,186.833 1615,187.5C 1612.58,186.512 1610.25,186.845 1608,188.5C 1605.61,186.707 1603.45,184.707 1601.5,182.5C 1601.01,181.527 1600.51,180.527 1600,179.5C 1599.33,171.833 1599.33,164.167 1600,156.5C 1600.23,155.263 1600.73,154.263 1601.5,153.5C 1601.37,155.655 1601.87,157.655 1603,159.5C 1604,158.167 1605,158.167 1606,159.5C 1606.33,158.833 1606.67,158.167 1607,157.5C 1610.32,157.177 1613.32,157.177 1616,157.5C 1617.07,155.453 1618.24,153.453 1619.5,151.5C 1620.58,150.295 1621.91,149.628 1623.5,149.5 Z"/></g>
<g><path style="opacity:1" fill="#2b3b39" d="M 1053.5,121.5 C 1046.44,119.59 1039.11,118.924 1031.5,119.5C 1031.5,120.833 1031.5,122.167 1031.5,123.5C 1031.5,140.5 1031.5,157.5 1031.5,174.5C 1031.83,206.338 1031.5,238.004 1030.5,269.5C 1030.5,219.167 1030.5,168.833 1030.5,118.5C 1038.17,118.5 1045.83,118.5 1053.5,118.5C 1053.5,119.5 1053.5,120.5 1053.5,121.5 Z"/></g>
<g><path style="opacity:1" fill="#88bfbf" d="M 1154.5,139.5 C 1154.5,140.167 1154.5,140.833 1154.5,141.5C 1153.88,141.611 1153.38,141.944 1153,142.5C 1152.5,161.497 1152.33,180.497 1152.5,199.5C 1151.69,197.369 1151.19,195.036 1151,192.5C 1150.79,196.089 1150.29,199.589 1149.5,203C 1149.83,203.333 1150.17,203.667 1150.5,204C 1148.77,203.647 1147.11,203.481 1145.5,203.5C 1144.18,205.27 1142.68,205.603 1141,204.5C 1140.37,206.991 1139.54,206.991 1138.5,204.5C 1137.81,205.025 1137.31,205.692 1137,206.5C 1134.91,187.244 1134.08,167.91 1134.5,148.5C 1134.26,147.209 1134.6,146.209 1135.5,145.5C 1135.06,153.616 1135.73,161.616 1137.5,169.5C 1138.75,168.96 1139.91,168.293 1141,167.5C 1143.59,168.378 1145.92,168.378 1148,167.5C 1149.95,165.663 1150.95,163.329 1151,160.5C 1151.33,154.167 1151.67,147.833 1152,141.5C 1152.71,140.619 1153.54,139.953 1154.5,139.5 Z"/></g>
<g><path style="opacity:1" fill="#8fc6c0" d="M 1033.5,124.5 C 1033.28,137.885 1033.95,151.218 1035.5,164.5C 1037.72,164.822 1039.56,164.155 1041,162.5C 1044.64,164.357 1047.31,163.024 1049,158.5C 1050.33,147.21 1050.83,135.877 1050.5,124.5C 1051.5,139.324 1051.83,154.324 1051.5,169.5C 1050.83,179.032 1049.99,188.699 1049,198.5C 1047.42,199.376 1046.42,200.709 1046,202.5C 1042.64,200.356 1039.31,200.689 1036,203.5C 1035.06,200.749 1034.22,198.083 1033.5,195.5C 1032.62,171.667 1032.62,148 1033.5,124.5 Z"/></g>
<g><path style="opacity:1" fill="#7cb1bb" d="M 1340.5,150.5 C 1338.88,154.327 1337.88,158.327 1337.5,162.5C 1336.19,168.118 1336.52,173.784 1338.5,179.5C 1338.34,180.873 1338.51,182.207 1339,183.5C 1342.56,186.396 1345.39,189.896 1347.5,194C 1356.97,197.575 1365.64,201.742 1373.5,206.5C 1371.51,207.873 1369.34,208.873 1367,209.5C 1366.67,208.833 1366.33,208.167 1366,207.5C 1364.06,208.315 1362.06,209.315 1360,210.5C 1357.99,209.283 1355.99,209.616 1354,211.5C 1352.92,209.606 1351.59,209.273 1350,210.5C 1347.77,208.887 1345.27,208.22 1342.5,208.5C 1327.83,202.169 1319.16,191.169 1316.5,175.5C 1316.18,170.637 1316.51,165.97 1317.5,161.5C 1317.33,165.182 1317.5,168.848 1318,172.5C 1318.26,181.459 1321.93,183.459 1329,178.5C 1329.31,179.308 1329.81,179.975 1330.5,180.5C 1331.54,178.009 1332.37,178.009 1333,180.5C 1334.29,174.338 1334.96,168.004 1335,161.5C 1336.7,158.569 1337.86,155.402 1338.5,152C 1338.84,150.97 1339.5,150.47 1340.5,150.5 Z"/></g>
<g><path style="opacity:1" fill="#76aab9" d="M 1504.5,122.5 C 1510.69,122.177 1516.69,122.51 1522.5,123.5C 1523.5,142.326 1523.83,161.326 1523.5,180.5C 1522.71,179.391 1522.21,178.058 1522,176.5C 1521.82,185.078 1521.32,193.578 1520.5,202C 1519.26,202.456 1518.42,201.956 1518,200.5C 1517.68,202.301 1517.02,202.634 1516,201.5C 1514.92,203.394 1513.59,203.727 1512,202.5C 1510.56,203.26 1509.06,203.926 1507.5,204.5C 1506.86,201.343 1505.86,198.01 1504.5,194.5C 1503.84,170.839 1503.51,147.172 1503.5,123.5C 1503.5,122.833 1503.83,122.5 1504.5,122.5 Z"/></g>
<g><path style="opacity:1" fill="#82b8be" d="M 1522.5,123.5 C 1521.97,139.496 1521.47,155.496 1521,171.5C 1520.67,172.167 1520.33,172.833 1520,173.5C 1517.32,173.177 1514.32,173.177 1511,173.5C 1510.03,175.878 1509.36,175.544 1509,172.5C 1507.61,176.272 1506.61,176.272 1506,172.5C 1504.74,156.192 1504.24,139.858 1504.5,123.5C 1510.5,123.5 1516.5,123.5 1522.5,123.5 Z"/></g>
<g><path style="opacity:1" fill="#a5dcc3" d="M 481.5,157.5 C 478.202,166.38 474.869,175.38 471.5,184.5C 471.709,185.086 472.043,185.586 472.5,186C 470.071,186.451 469.904,187.285 472,188.5C 473.406,187.332 474.572,187.665 475.5,189.5C 474.984,188.242 475.65,187.242 477.5,186.5C 479.167,186.5 480.833,186.5 482.5,186.5C 484.04,184.563 486.04,183.396 488.5,183C 488.043,182.586 487.709,182.086 487.5,181.5C 491.326,175.699 494.659,169.699 497.5,163.5C 498.5,163.5 499.5,163.5 500.5,163.5C 500.833,160.5 502.5,158.833 505.5,158.5C 499.889,165.383 495.556,173.049 492.5,181.5C 491.503,181.47 490.836,181.97 490.5,183C 486.236,193.409 483.736,204.242 483,215.5C 482.667,215.167 482.333,214.833 482,214.5C 480.333,215.833 478.667,217.167 477,218.5C 475.111,217.903 473.278,217.569 471.5,217.5C 470.304,217.846 470.304,218.346 471.5,219C 470.175,218.852 469.008,219.018 468,219.5C 466.254,208.18 466.087,196.847 467.5,185.5C 468.755,181.563 469.922,177.563 471,173.5C 473.281,167.245 476.781,161.912 481.5,157.5 Z"/></g>
<g><path style="opacity:1" fill="#4e6a64" d="M 731.5,198.5 C 760.833,198.5 790.167,198.5 819.5,198.5C 819.5,199.5 819.5,200.5 819.5,201.5C 790.167,201.5 760.833,201.5 731.5,201.5C 731.5,200.5 731.5,199.5 731.5,198.5 Z"/></g>
<g><path style="opacity:1" fill="#47625d" d="M 929.5,119.5 C 918.779,118.858 908.446,119.525 898.5,121.5C 898.5,153.833 898.5,186.167 898.5,218.5C 898.5,224.5 898.5,230.5 898.5,236.5C 898.167,236.5 897.833,236.5 897.5,236.5C 897.5,197.167 897.5,157.833 897.5,118.5C 908.346,118.172 919.013,118.506 929.5,119.5 Z"/></g>
<g><path style="opacity:1" fill="#6b9eb6" d="M 1619.5,159.5 C 1619.5,163.167 1619.5,166.833 1619.5,170.5C 1619.55,173.568 1620.05,176.568 1621,179.5C 1624.45,184.948 1628.61,189.782 1633.5,194C 1639.46,196.489 1645.46,198.655 1651.5,200.5C 1655.73,201.919 1659.73,203.919 1663.5,206.5C 1662.29,207.23 1661.29,208.23 1660.5,209.5C 1658.03,207.993 1655.86,208.327 1654,210.5C 1653.37,208.009 1652.54,208.009 1651.5,210.5C 1650.8,207.656 1649.64,207.989 1648,211.5C 1646.29,210.075 1644.95,210.408 1644,212.5C 1643.67,211.833 1643.33,211.167 1643,210.5C 1642.33,211.833 1641.67,211.833 1641,210.5C 1640.39,212.481 1639.39,212.815 1638,211.5C 1637.52,212.448 1637.35,213.448 1637.5,214.5C 1626.87,211.105 1617.37,205.772 1609,198.5C 1605.73,194.948 1603.23,190.948 1601.5,186.5C 1601.5,185.167 1601.5,183.833 1601.5,182.5C 1603.45,184.707 1605.61,186.707 1608,188.5C 1610.25,186.845 1612.58,186.512 1615,187.5C 1615.67,186.833 1616.33,186.167 1617,185.5C 1617.89,186.711 1618.73,186.711 1619.5,185.5C 1618.18,176.705 1618.18,168.038 1619.5,159.5 Z"/></g>
<g><path style="opacity:1" fill="#446063" d="M 1155.5,198.5 C 1184.83,198.5 1214.17,198.5 1243.5,198.5C 1243.5,199.5 1243.5,200.5 1243.5,201.5C 1214.17,201.5 1184.83,201.5 1155.5,201.5C 1155.5,200.5 1155.5,199.5 1155.5,198.5 Z"/></g>
<g><path style="opacity:1" fill="#7ba89d" d="M 730.5,140.5 C 730.17,160.007 730.503,179.341 731.5,198.5C 731.5,199.5 731.5,200.5 731.5,201.5C 760.833,201.5 790.167,201.5 819.5,201.5C 819.5,206.5 819.5,211.5 819.5,216.5C 818.833,216.5 818.167,216.5 817.5,216.5C 817.797,212.233 817.464,208.066 816.5,204C 787.835,203.5 759.169,203.333 730.5,203.5C 729.536,183.534 729.202,163.534 729.5,143.5C 729.263,142.209 729.596,141.209 730.5,140.5 Z"/></g>
<g><path style="opacity:1" fill="#7fb4bd" d="M 1133.5,148.5 C 1133.83,148.5 1134.17,148.5 1134.5,148.5C 1134.08,167.91 1134.91,187.244 1137,206.5C 1137.31,205.692 1137.81,205.025 1138.5,204.5C 1139.54,206.991 1140.37,206.991 1141,204.5C 1142.68,205.603 1144.18,205.27 1145.5,203.5C 1147.11,203.481 1148.77,203.647 1150.5,204C 1150.17,203.667 1149.83,203.333 1149.5,203C 1150.29,199.589 1150.79,196.089 1151,192.5C 1151.19,195.036 1151.69,197.369 1152.5,199.5C 1152.94,201.074 1153.94,202.241 1155.5,203C 1183.83,203.333 1212.17,203.667 1240.5,204C 1241.46,208.066 1241.8,212.233 1241.5,216.5C 1212.5,216.5 1183.5,216.5 1154.5,216.5C 1154.5,217.5 1154.5,218.5 1154.5,219.5C 1153.88,219.611 1153.38,219.944 1153,220.5C 1152.5,222.81 1152.34,225.143 1152.5,227.5C 1151.67,232.985 1151.17,238.652 1151,244.5C 1150,241.833 1149,241.833 1148,244.5C 1146.1,241.92 1144.1,242.253 1142,245.5C 1139.97,243.44 1137.97,243.774 1136,246.5C 1135.72,245.584 1135.22,244.918 1134.5,244.5C 1134.79,242.265 1134.46,240.265 1133.5,238.5C 1133.5,208.5 1133.5,178.5 1133.5,148.5 Z"/></g>
<g><path style="opacity:1" fill="#6c979a" d="M 1154.5,141.5 C 1154.17,160.674 1154.5,179.674 1155.5,198.5C 1155.5,199.5 1155.5,200.5 1155.5,201.5C 1184.83,201.5 1214.17,201.5 1243.5,201.5C 1244.11,206.944 1243.44,211.944 1241.5,216.5C 1241.8,212.233 1241.46,208.066 1240.5,204C 1212.17,203.667 1183.83,203.333 1155.5,203C 1153.94,202.241 1152.94,201.074 1152.5,199.5C 1152.33,180.497 1152.5,161.497 1153,142.5C 1153.38,141.944 1153.88,141.611 1154.5,141.5 Z"/></g>
<g><path style="opacity:1" fill="#48625b" d="M 629.5,292.5 C 629.5,263.833 629.5,235.167 629.5,206.5C 608.424,206.179 587.424,206.512 566.5,207.5C 566.5,206.5 566.5,205.5 566.5,204.5C 587.833,204.5 609.167,204.5 630.5,204.5C 630.831,234.005 630.498,263.338 629.5,292.5 Z"/></g>
<g><path style="opacity:1" fill="#95ccc1" d="M 710.5,141.5 C 711.167,141.5 711.5,141.833 711.5,142.5C 711.14,159.865 711.64,177.199 713,194.5C 713.249,195.624 713.749,196.624 714.5,197.5C 716.156,195.978 717.323,196.311 718,198.5C 719.039,195.123 720.539,194.457 722.5,196.5C 723.716,195.998 724.883,195.665 726,195.5C 727.501,178.04 728.667,160.707 729.5,143.5C 729.202,163.534 729.536,183.534 730.5,203.5C 759.169,203.333 787.835,203.5 816.5,204C 817.464,208.066 817.797,212.233 817.5,216.5C 788.147,215.841 759.147,216.508 730.5,218.5C 729.21,219.058 728.377,220.058 728,221.5C 727.811,226.251 727.145,230.917 726,235.5C 724.984,234.366 724.317,234.699 724,236.5C 723.374,234.009 722.541,234.009 721.5,236.5C 720.017,234.054 718.851,234.388 718,237.5C 717.259,236.359 716.425,236.359 715.5,237.5C 714.201,236.91 713.368,235.91 713,234.5C 711.88,224.87 711.214,215.204 711,205.5C 710.5,184.169 710.333,162.836 710.5,141.5 Z"/></g>
<g><path style="opacity:1" fill="#7fac9d" d="M 488.5,195.5 C 486.684,210.049 487.684,224.382 491.5,238.5C 491.351,241.607 491.851,244.607 493,247.5C 494.452,250.582 495.952,253.582 497.5,256.5C 495.521,255.188 493.855,253.521 492.5,251.5C 486.392,235.779 484.225,219.446 486,202.5C 486.156,199.809 486.989,197.476 488.5,195.5 Z"/></g>
<g><path style="opacity:1" fill="#8cc2bd" d="M 951.5,158.5 C 955.47,163.084 958.97,168.084 962,173.5C 963.839,175.201 965.673,176.868 967.5,178.5C 967.517,180.565 967.85,182.565 968.5,184.5C 970.587,190.666 973.754,196.333 978,201.5C 978.884,204.935 980.051,208.268 981.5,211.5C 979.704,211.269 977.871,211.935 976,213.5C 974.984,212.366 974.317,212.699 974,214.5C 970.255,213.066 966.422,211.066 962.5,208.5C 953.473,195.459 944.807,182.126 936.5,168.5C 938.807,170.338 941.14,172.338 943.5,174.5C 944.308,176.925 945.308,179.258 946.5,181.5C 948.792,182.309 950.959,182.643 953,182.5C 954.943,180.285 956.609,180.285 958,182.5C 959.015,179.937 960.515,178.604 962.5,178.5C 959.249,172.996 955.749,167.662 952,162.5C 951.51,161.207 951.343,159.873 951.5,158.5 Z"/></g>
<g><path style="opacity:1" fill="#70988f" d="M 629.5,292.5 C 629.167,292.5 628.833,292.5 628.5,292.5C 628.5,274.5 628.5,256.5 628.5,238.5C 628.819,228.584 628.486,218.75 627.5,209C 607.503,208.5 587.503,208.333 567.5,208.5C 567.5,213.167 567.5,217.833 567.5,222.5C 566.513,217.695 566.179,212.695 566.5,207.5C 587.424,206.512 608.424,206.179 629.5,206.5C 629.5,235.167 629.5,263.833 629.5,292.5 Z"/></g>
<g><path style="opacity:1" fill="#8ec4bf" d="M 918.5,153.5 C 918.877,176.545 918.044,199.545 916,222.5C 915.64,224.608 914.973,226.608 914,228.5C 913.667,227.833 913.333,227.167 913,226.5C 910.843,229.078 909.677,229.078 909.5,226.5C 908.667,227.5 907.833,228.5 907,229.5C 906.333,226.833 905.667,226.833 905,229.5C 902.676,228.193 901.343,226.193 901,223.5C 900.51,224.793 900.343,226.127 900.5,227.5C 900.167,227.5 899.833,227.5 899.5,227.5C 899.5,224.5 899.5,221.5 899.5,218.5C 899.5,201.167 899.5,183.833 899.5,166.5C 900.824,172.707 902.157,179.04 903.5,185.5C 906.364,185.842 909.198,185.176 912,183.5C 912.333,183.833 912.667,184.167 913,184.5C 913.667,181.833 914.333,181.833 915,184.5C 916.077,174.011 917.243,163.678 918.5,153.5 Z"/></g>
<g><path style="opacity:1" fill="#53726f" d="M 1053.5,121.5 C 1053.5,159.833 1053.5,198.167 1053.5,236.5C 1053.17,236.5 1052.83,236.5 1052.5,236.5C 1052.5,226.5 1052.5,216.5 1052.5,206.5C 1052.67,178.498 1052.5,150.498 1052,122.5C 1045.92,121.358 1039.75,121.191 1033.5,122C 1032.96,122.717 1032.29,123.217 1031.5,123.5C 1031.5,122.167 1031.5,120.833 1031.5,119.5C 1039.11,118.924 1046.44,119.59 1053.5,121.5 Z"/></g>
<g><path style="opacity:1" fill="#415e66" d="M 1337.5,162.5 C 1338.06,178.568 1346.06,189.068 1361.5,194C 1377.21,198.68 1392.54,204.347 1407.5,211C 1418.49,216.833 1425.83,225.666 1429.5,237.5C 1427.28,234.403 1424.61,231.737 1421.5,229.5C 1415.73,221.44 1408.4,215.273 1399.5,211C 1383.28,204.813 1366.94,198.813 1350.5,193C 1346.18,188.699 1342.18,184.199 1338.5,179.5C 1336.52,173.784 1336.19,168.118 1337.5,162.5 Z"/></g>
<g><path style="opacity:1" fill="#9bd3c4" d="M 608.5,223.5 C 608.5,223.167 608.5,222.833 608.5,222.5C 595.677,221.505 582.677,221.171 569.5,221.5C 569.5,217.833 569.5,214.167 569.5,210.5C 588.5,210.5 607.5,210.5 626.5,210.5C 626.381,215.212 626.381,219.712 626.5,224C 625.833,226 625.167,228 624.5,230C 621.931,231.426 619.764,231.259 618,229.5C 617.094,231.612 615.594,232.445 613.5,232C 612.793,229.48 611.96,226.98 611,224.5C 610.329,223.748 609.496,223.414 608.5,223.5 Z"/></g>
<g><path style="opacity:1" fill="#4e6c6b" d="M 967.5,178.5 C 979.947,195.956 991.613,213.956 1002.5,232.5C 995.814,224.475 989.481,216.141 983.5,207.5C 983.657,206.127 983.49,204.793 983,203.5C 977.951,197.29 973.117,190.957 968.5,184.5C 967.85,182.565 967.517,180.565 967.5,178.5 Z"/></g>
<g><path style="opacity:1" fill="#6599b8" d="M 1663.5,206.5 C 1666.82,207.329 1670.15,208.162 1673.5,209C 1680.7,213.432 1688.03,217.598 1695.5,221.5C 1695.96,226.244 1694.46,227.244 1691,224.5C 1689.67,225.833 1688.33,227.167 1687,228.5C 1686.67,227.833 1686.33,227.167 1686,226.5C 1684.33,226.5 1682.67,226.5 1681,226.5C 1679.16,228.834 1676.99,229.168 1674.5,227.5C 1662.38,222.57 1650.04,218.237 1637.5,214.5C 1637.35,213.448 1637.52,212.448 1638,211.5C 1639.39,212.815 1640.39,212.481 1641,210.5C 1641.67,211.833 1642.33,211.833 1643,210.5C 1643.33,211.167 1643.67,211.833 1644,212.5C 1644.95,210.408 1646.29,210.075 1648,211.5C 1649.64,207.989 1650.8,207.656 1651.5,210.5C 1652.54,208.009 1653.37,208.009 1654,210.5C 1655.86,208.327 1658.03,207.993 1660.5,209.5C 1661.29,208.23 1662.29,207.23 1663.5,206.5 Z"/></g>
<g><path style="opacity:1" fill="#85bbbc" d="M 968.5,184.5 C 973.117,190.957 977.951,197.29 983,203.5C 983.49,204.793 983.657,206.127 983.5,207.5C 985.169,212.498 987.669,217.165 991,221.5C 992.612,225.862 993.946,230.196 995,234.5C 993.413,233.273 992.079,233.606 991,235.5C 989.915,234.707 988.748,234.04 987.5,233.5C 986.468,235.04 985.135,235.54 983.5,235C 980.257,229.927 976.257,225.76 971.5,222.5C 968.015,218.21 965.015,213.543 962.5,208.5C 966.422,211.066 970.255,213.066 974,214.5C 974.317,212.699 974.984,212.366 976,213.5C 977.871,211.935 979.704,211.269 981.5,211.5C 980.051,208.268 978.884,204.935 978,201.5C 973.754,196.333 970.587,190.666 968.5,184.5 Z"/></g>
<g><path style="opacity:1" fill="#72a6b8" d="M 1338.5,179.5 C 1342.18,184.199 1346.18,188.699 1350.5,193C 1366.94,198.813 1383.28,204.813 1399.5,211C 1408.4,215.273 1415.73,221.44 1421.5,229.5C 1420.8,231.678 1420.46,233.678 1420.5,235.5C 1418.26,235.694 1416.1,235.694 1414,235.5C 1413.09,236.328 1412.42,237.328 1412,238.5C 1411.69,237.692 1411.19,237.025 1410.5,236.5C 1409.55,237.326 1408.55,237.492 1407.5,237C 1404.39,233.211 1400.72,230.211 1396.5,228C 1395.42,227.53 1394.42,227.697 1393.5,228.5C 1378.86,222.12 1363.86,216.62 1348.5,212C 1346.27,211.059 1344.27,209.892 1342.5,208.5C 1345.27,208.22 1347.77,208.887 1350,210.5C 1351.59,209.273 1352.92,209.606 1354,211.5C 1355.99,209.616 1357.99,209.283 1360,210.5C 1362.06,209.315 1364.06,208.315 1366,207.5C 1366.33,208.167 1366.67,208.833 1367,209.5C 1369.34,208.873 1371.51,207.873 1373.5,206.5C 1365.64,201.742 1356.97,197.575 1347.5,194C 1345.39,189.896 1342.56,186.396 1339,183.5C 1338.51,182.207 1338.34,180.873 1338.5,179.5 Z"/></g>
<g><path style="opacity:1" fill="#375262" d="M 1619.5,170.5 C 1622.35,179.528 1628.01,186.361 1636.5,191C 1652.03,197.064 1667.69,202.731 1683.5,208C 1692.48,211.985 1699.98,217.818 1706,225.5C 1708.65,229.133 1710.48,233.133 1711.5,237.5C 1710.17,236.167 1708.83,234.833 1707.5,233.5C 1705.79,229.428 1703.13,226.095 1699.5,223.5C 1696.28,220.92 1693.28,218.087 1690.5,215C 1688.91,214.138 1687.25,213.471 1685.5,213C 1684.66,211.989 1684.33,210.822 1684.5,209.5C 1673.41,206.85 1662.41,203.85 1651.5,200.5C 1645.46,198.655 1639.46,196.489 1633.5,194C 1628.61,189.782 1624.45,184.948 1621,179.5C 1620.05,176.568 1619.55,173.568 1619.5,170.5 Z"/></g>
<g><path style="opacity:1" fill="#6ca0b9" d="M 1523.5,180.5 C 1523.5,191.167 1523.5,201.833 1523.5,212.5C 1522.53,214.948 1522.19,217.615 1522.5,220.5C 1521.09,226.172 1520.09,232.005 1519.5,238C 1517.77,239.852 1516.6,239.686 1516,237.5C 1514.8,238.471 1514.3,239.471 1514.5,240.5C 1513.83,239.833 1513.17,239.167 1512.5,238.5C 1511.09,239.427 1509.59,240.427 1508,241.5C 1506.81,239.377 1506.14,237.043 1506,234.5C 1505.54,235.094 1505.37,235.761 1505.5,236.5C 1504.5,222.677 1504.17,208.677 1504.5,194.5C 1505.86,198.01 1506.86,201.343 1507.5,204.5C 1509.06,203.926 1510.56,203.26 1512,202.5C 1513.59,203.727 1514.92,203.394 1516,201.5C 1517.02,202.634 1517.68,202.301 1518,200.5C 1518.42,201.956 1519.26,202.456 1520.5,202C 1521.32,193.578 1521.82,185.078 1522,176.5C 1522.21,178.058 1522.71,179.391 1523.5,180.5 Z"/></g>
<g><path style="opacity:1" fill="#7ca798" d="M 465.5,187.5 C 463.481,207.416 464.814,227.082 469.5,246.5C 466.736,240.228 464.903,233.561 464,226.5C 463.333,215.167 463.333,203.833 464,192.5C 464.198,190.618 464.698,188.952 465.5,187.5 Z"/></g>
<g><path style="opacity:1" fill="#56819a" d="M 1651.5,200.5 C 1662.41,203.85 1673.41,206.85 1684.5,209.5C 1684.33,210.822 1684.66,211.989 1685.5,213C 1687.25,213.471 1688.91,214.138 1690.5,215C 1693.28,218.087 1696.28,220.92 1699.5,223.5C 1697.94,223.267 1696.6,222.6 1695.5,221.5C 1688.03,217.598 1680.7,213.432 1673.5,209C 1670.15,208.162 1666.82,207.329 1663.5,206.5C 1659.73,203.919 1655.73,201.919 1651.5,200.5 Z"/></g>
<g><path style="opacity:1" fill="#83b9be" d="M 1051.5,169.5 C 1051.5,181.833 1051.5,194.167 1051.5,206.5C 1050.94,216.161 1050.27,225.828 1049.5,235.5C 1047.8,236.364 1046.64,237.697 1046,239.5C 1043.05,238.747 1039.88,238.747 1036.5,239.5C 1033.86,230.027 1032.86,220.36 1033.5,210.5C 1033.5,205.5 1033.5,200.5 1033.5,195.5C 1034.22,198.083 1035.06,200.749 1036,203.5C 1039.31,200.689 1042.64,200.356 1046,202.5C 1046.42,200.709 1047.42,199.376 1049,198.5C 1049.99,188.699 1050.83,179.032 1051.5,169.5 Z"/></g>
<g><path style="opacity:1" fill="#5e91b6" d="M 1695.5,221.5 C 1696.6,222.6 1697.94,223.267 1699.5,223.5C 1703.13,226.095 1705.79,229.428 1707.5,233.5C 1707.93,236.01 1708.59,238.343 1709.5,240.5C 1709.85,243.073 1709.35,245.406 1708,247.5C 1707.67,247.167 1707.33,246.833 1707,246.5C 1704.88,247.69 1702.88,249.023 1701,250.5C 1700.69,249.692 1700.19,249.025 1699.5,248.5C 1698.5,249.833 1697.5,249.833 1696.5,248.5C 1696.17,249.167 1695.83,249.833 1695.5,250.5C 1694.75,249.624 1694.25,248.624 1694,247.5C 1693.67,248.833 1693.33,250.167 1693,251.5C 1692.92,247.565 1691.92,243.898 1690,240.5C 1688.87,238.859 1687.37,237.859 1685.5,237.5C 1682.06,233.943 1678.4,230.609 1674.5,227.5C 1676.99,229.168 1679.16,228.834 1681,226.5C 1682.67,226.5 1684.33,226.5 1686,226.5C 1686.33,227.167 1686.67,227.833 1687,228.5C 1688.33,227.167 1689.67,225.833 1691,224.5C 1694.46,227.244 1695.96,226.244 1695.5,221.5 Z"/></g>
<g><path style="opacity:1" fill="#9ad1c2" d="M 492.5,181.5 C 491.043,186.113 489.709,190.779 488.5,195.5C 486.989,197.476 486.156,199.809 486,202.5C 484.225,219.446 486.392,235.779 492.5,251.5C 492.943,255.529 491.109,257.529 487,257.5C 486.309,255.109 485.309,255.109 484,257.5C 481.91,256.209 480.576,256.876 480,259.5C 479.683,257.699 479.016,257.366 478,258.5C 477,257.833 476,257.167 475,256.5C 473.619,252.796 471.786,249.463 469.5,246.5C 464.814,227.082 463.481,207.416 465.5,187.5C 466.167,186.833 466.833,186.167 467.5,185.5C 466.087,196.847 466.254,208.18 468,219.5C 469.008,219.018 470.175,218.852 471.5,219C 470.304,218.346 470.304,217.846 471.5,217.5C 473.278,217.569 475.111,217.903 477,218.5C 478.667,217.167 480.333,215.833 482,214.5C 482.333,214.833 482.667,215.167 483,215.5C 483.736,204.242 486.236,193.409 490.5,183C 490.836,181.97 491.503,181.47 492.5,181.5 Z"/></g>
<g><path style="opacity:1" fill="#92c8be" d="M 628.5,238.5 C 627.272,242.022 626.105,245.689 625,249.5C 622.844,252.103 620.177,252.77 617,251.5C 616.163,253.007 614.996,253.507 613.5,253C 611.311,244.529 609.978,236.029 609.5,227.5C 609.672,226.508 609.338,225.842 608.5,225.5C 608.5,224.833 608.5,224.167 608.5,223.5C 609.496,223.414 610.329,223.748 611,224.5C 611.96,226.98 612.793,229.48 613.5,232C 615.594,232.445 617.094,231.612 618,229.5C 619.764,231.259 621.931,231.426 624.5,230C 625.167,228 625.833,226 626.5,224C 626.381,219.712 626.381,215.212 626.5,210.5C 607.5,210.5 588.5,210.5 569.5,210.5C 569.5,214.167 569.5,217.833 569.5,221.5C 582.677,221.171 595.677,221.505 608.5,222.5C 594.833,222.5 581.167,222.5 567.5,222.5C 567.5,217.833 567.5,213.167 567.5,208.5C 587.503,208.333 607.503,208.5 627.5,209C 628.486,218.75 628.819,228.584 628.5,238.5 Z"/></g>
<g><path style="opacity:1" fill="#141e30" d="M 273.5,195.5 C 276.518,195.335 279.518,195.502 282.5,196C 283.333,196.833 284.167,197.667 285,198.5C 287.888,207.958 289.888,217.624 291,227.5C 296.473,219.361 303.306,212.527 311.5,207C 316.44,205.959 321.106,206.626 325.5,209C 327.393,211.917 327.893,215.084 327,218.5C 315.834,234.827 305.168,251.494 295,268.5C 280.253,278.79 265.42,288.957 250.5,299C 243.355,309.942 233.355,313.608 220.5,310C 203.195,307.536 185.862,305.202 168.5,303C 158.141,303.128 147.807,302.962 137.5,302.5C 135.971,302.529 134.804,303.196 134,304.5C 126,314.5 118,324.5 110,334.5C 108.235,336.774 106.068,338.441 103.5,339.5C 100.136,338.856 98.9693,336.856 100,333.5C 108.704,325.064 116.704,316.064 124,306.5C 124.879,301.713 124.545,297.047 123,292.5C 114.077,283.325 104.244,282.158 93.5,289C 87.8767,292.955 82.5434,297.288 77.5,302C 75.2305,302.758 73.0639,302.591 71,301.5C 70.3333,300.167 70.3333,298.833 71,297.5C 77.5642,292.871 83.5642,287.538 89,281.5C 93.5312,273.019 94.6979,264.019 92.5,254.5C 82.1667,262.333 71.8333,270.167 61.5,278C 57.2857,279.162 55.4523,277.662 56,273.5C 68.0761,263.879 80.2427,254.379 92.5,245C 95.1667,244.667 97.8333,244.333 100.5,244C 106.757,238.597 114.09,236.263 122.5,237C 133.485,223.02 147.818,217.687 165.5,221C 182.435,227.201 199.435,233.201 216.5,239C 226.17,239.518 235.837,240.018 245.5,240.5C 245.77,235.976 247.103,231.81 249.5,228C 242.64,221.764 240.474,214.264 243,205.5C 247.052,203.058 251.219,202.891 255.5,205C 260.795,212.091 264.629,219.924 267,228.5C 268.129,225.735 269.629,223.235 271.5,221C 267.722,213.335 267.556,205.501 271,197.5C 271.995,196.934 272.828,196.267 273.5,195.5 Z"/></g>
<g><path style="opacity:1" fill="#f6f6f7" d="M 202.5,254.5 C 201.596,255.209 201.263,256.209 201.5,257.5C 199.833,257.5 198.167,257.5 196.5,257.5C 191.851,256.935 187.184,256.435 182.5,256C 176.79,252.145 170.79,248.812 164.5,246C 157.615,244.902 150.949,245.569 144.5,248C 135.339,248.829 131.839,244.662 134,235.5C 142.512,228.246 152.345,225.746 163.5,228C 174.456,231.652 185.456,235.319 196.5,239C 199.544,240.404 202.544,241.904 205.5,243.5C 203.478,246.897 202.478,250.564 202.5,254.5 Z"/></g>
<g><path style="opacity:1" fill="#f2f2f3" d="M 301.5,225.5 C 304.32,225.248 306.986,225.748 309.5,227C 310.576,228.726 310.743,230.559 310,232.5C 306.667,237.833 303.333,243.167 300,248.5C 298.029,252.186 295.195,253.186 291.5,251.5C 289.628,249.465 287.961,247.298 286.5,245C 289.535,239.766 292.701,234.6 296,229.5C 297.5,227.531 299.333,226.198 301.5,225.5 Z"/></g>
<g><path style="opacity:1" fill="#f2f2f4" d="M 277.5,245.5 C 277.649,244.448 277.483,243.448 277,242.5C 275.005,244.747 272.505,245.747 269.5,245.5C 268,246.303 268,244.303 269.5,239.5C 270.722,234.054 273.056,229.22 276.5,225C 278.81,224.503 281.143,224.337 283.5,224.5C 283.308,229.27 282.475,233.937 281,238.5C 280.478,241.281 279.311,243.615 277.5,245.5 Z"/></g>
<g><path style="opacity:1" fill="#c5c9d0" d="M 248.5,209.5 C 251.292,209.452 253.125,210.785 254,213.5C 255.908,216.206 256.741,219.206 256.5,222.5C 257.675,222.281 258.675,222.614 259.5,223.5C 256.433,225.052 253.933,224.385 252,221.5C 250.364,218.394 248.864,215.227 247.5,212C 247.743,211.098 248.077,210.265 248.5,209.5 Z"/></g>
<g><path style="opacity:1" fill="#e8e9eb" d="M 313.5,212.5 C 318.712,211.492 320.878,213.492 320,218.5C 318.611,220.227 316.944,221.561 315,222.5C 312.224,221.195 309.39,220.029 306.5,219C 308.729,216.6 311.063,214.433 313.5,212.5 Z"/></g>
<g><path style="opacity:1" fill="#9da3ab" d="M 281.5,210.5 C 282.461,212.265 282.795,214.265 282.5,216.5C 278.467,216.309 276.967,214.309 278,210.5C 279.852,215.586 281.019,215.586 281.5,210.5 Z"/></g>
<g><path style="opacity:1" fill="#e8e9ea" d="M 281.5,210.5 C 281.019,215.586 279.852,215.586 278,210.5C 276.967,214.309 278.467,216.309 282.5,216.5C 283.404,217.209 283.737,218.209 283.5,219.5C 275.056,217.855 272.223,212.855 275,204.5C 275.718,201.766 277.218,201.1 279.5,202.5C 280.295,205.144 280.962,207.811 281.5,210.5 Z"/></g>
<g><path style="opacity:1" fill="#9ea6b5" d="M 261.5,233.5 C 261.406,240.206 259.906,246.54 257,252.5C 256.158,249.161 254.658,246.161 252.5,243.5C 253.867,240.732 254.867,237.732 255.5,234.5C 257.396,233.534 259.396,233.201 261.5,233.5 Z"/></g>
<g><path style="opacity:1" fill="#d6d8dd" d="M 261.5,233.5 C 259.396,233.201 257.396,233.534 255.5,234.5C 254.867,237.732 253.867,240.732 252.5,243.5C 251.405,240.283 251.571,236.95 253,233.5C 256.026,230.928 258.859,230.928 261.5,233.5 Z"/></g>
<g><path style="opacity:1" fill="#608c9f" d="M 1502.5,123.5 C 1502.83,123.5 1503.17,123.5 1503.5,123.5C 1503.51,147.172 1503.84,170.839 1504.5,194.5C 1504.17,208.677 1504.5,222.677 1505.5,236.5C 1505.82,243.022 1505.49,249.355 1504.5,255.5C 1504.82,251.298 1504.48,247.298 1503.5,243.5C 1503.81,240.615 1503.47,237.948 1502.5,235.5C 1502.5,198.167 1502.5,160.833 1502.5,123.5 Z"/></g>
<g><path style="opacity:1" fill="#81b6ba" d="M 919.5,152.5 C 919.5,169.5 919.5,186.5 919.5,203.5C 918.4,220.992 917.734,238.659 917.5,256.5C 916.883,256.389 916.383,256.056 916,255.5C 915.798,257.256 915.298,258.922 914.5,260.5C 913.808,259.975 913.308,259.308 913,258.5C 911.237,259.944 909.237,260.944 907,261.5C 906.333,258.833 905.667,258.833 905,261.5C 903.333,260.5 902,259.167 901,257.5C 900.5,247.506 900.334,237.506 900.5,227.5C 900.343,226.127 900.51,224.793 901,223.5C 901.343,226.193 902.676,228.193 905,229.5C 905.667,226.833 906.333,226.833 907,229.5C 907.833,228.5 908.667,227.5 909.5,226.5C 909.677,229.078 910.843,229.078 913,226.5C 913.333,227.167 913.667,227.833 914,228.5C 914.973,226.608 915.64,224.608 916,222.5C 918.044,199.545 918.877,176.545 918.5,153.5C 918.5,152.833 918.833,152.5 919.5,152.5 Z"/></g>
<g><path style="opacity:1" fill="#b8bbc7" d="M 306.5,230.5 C 307.043,230.56 307.376,230.893 307.5,231.5C 303.697,237.801 299.697,243.968 295.5,250C 292.859,249.873 291.192,248.373 290.5,245.5C 290.833,245.167 291.167,244.833 291.5,244.5C 292.275,246.475 293.609,247.309 295.5,247C 299.549,241.729 303.216,236.229 306.5,230.5 Z"/></g>
<g><path style="opacity:1" fill="#89bfbe" d="M 710.5,124.5 C 710.5,130.167 710.5,135.833 710.5,141.5C 710.333,162.836 710.5,184.169 711,205.5C 711.214,215.204 711.88,224.87 713,234.5C 713.368,235.91 714.201,236.91 715.5,237.5C 716.425,236.359 717.259,236.359 718,237.5C 718.851,234.388 720.017,234.054 721.5,236.5C 722.541,234.009 723.374,234.009 724,236.5C 724.317,234.699 724.984,234.366 726,235.5C 727.145,230.917 727.811,226.251 728,221.5C 728.377,220.058 729.21,219.058 730.5,218.5C 730.5,219.167 730.5,219.833 730.5,220.5C 729.778,220.918 729.278,221.584 729,222.5C 728.5,235.162 728.333,247.829 728.5,260.5C 727.847,264.093 727.014,267.759 726,271.5C 725.586,271.043 725.086,270.709 724.5,270.5C 721.952,271.097 719.285,272.097 716.5,273.5C 714.528,272.695 713.028,271.361 712,269.5C 711.424,251.662 710.591,233.995 709.5,216.5C 709.5,211.833 709.5,207.167 709.5,202.5C 709.169,176.328 709.502,150.328 710.5,124.5 Z"/></g>
<g><path style="opacity:1" fill="#2c3e3d" d="M 817.5,216.5 C 818.167,216.5 818.833,216.5 819.5,216.5C 790.338,217.498 761.005,217.831 731.5,217.5C 731.5,239.5 731.5,261.5 731.5,283.5C 731.167,283.5 730.833,283.5 730.5,283.5C 730.5,262.5 730.5,241.5 730.5,220.5C 730.5,219.833 730.5,219.167 730.5,218.5C 759.147,216.508 788.147,215.841 817.5,216.5 Z"/></g>
<g><path style="opacity:1" fill="#f1f2f3" d="M 220.5,245.5 C 228.909,245.643 237.242,246.476 245.5,248C 249.104,249.334 250.271,251.834 249,255.5C 247.833,257.333 246.333,258.833 244.5,260C 236.486,260.333 228.486,259.999 220.5,259C 215.221,254.503 215.221,250.003 220.5,245.5 Z"/></g>
<g><path style="opacity:1" fill="#bfc2c7" d="M 269.5,239.5 C 268,244.303 268,246.303 269.5,245.5C 272.505,245.747 275.005,244.747 277,242.5C 277.483,243.448 277.649,244.448 277.5,245.5C 274.446,247.531 271.113,249.198 267.5,250.5C 266.731,246.575 267.398,242.908 269.5,239.5 Z"/></g>
<g><path style="opacity:1" fill="#567b83" d="M 1031.5,174.5 C 1032.5,186.322 1032.83,198.322 1032.5,210.5C 1032.83,231.409 1032.49,252.242 1031.5,273C 1030.17,273.667 1028.83,273.667 1027.5,273C 1024.91,268.626 1021.74,264.793 1018,261.5C 1013.15,253.052 1008.15,244.719 1003,236.5C 1002.51,235.207 1002.34,233.873 1002.5,232.5C 1010.81,243.756 1018.64,255.423 1026,267.5C 1027.11,269.037 1028.61,269.703 1030.5,269.5C 1031.5,238.004 1031.83,206.338 1031.5,174.5 Z"/></g>
<g><path style="opacity:1" fill="#6598b5" d="M 1421.5,229.5 C 1424.61,231.737 1427.28,234.403 1429.5,237.5C 1429.5,237.833 1429.5,238.167 1429.5,238.5C 1429.83,247.682 1429.49,256.682 1428.5,265.5C 1428.24,259.251 1427.58,259.584 1426.5,266.5C 1426.13,267.91 1425.3,268.91 1424,269.5C 1421.32,269.177 1418.32,269.177 1415,269.5C 1414.67,270.167 1414.33,270.833 1414,271.5C 1412.38,271.111 1411.22,269.778 1410.5,267.5C 1409.94,269.332 1408.94,270.665 1407.5,271.5C 1407.83,268.833 1408.17,266.167 1408.5,263.5C 1411.36,248.24 1406.36,236.573 1393.5,228.5C 1394.42,227.697 1395.42,227.53 1396.5,228C 1400.72,230.211 1404.39,233.211 1407.5,237C 1408.55,237.492 1409.55,237.326 1410.5,236.5C 1411.19,237.025 1411.69,237.692 1412,238.5C 1412.42,237.328 1413.09,236.328 1414,235.5C 1416.1,235.694 1418.26,235.694 1420.5,235.5C 1420.46,233.678 1420.8,231.678 1421.5,229.5 Z"/></g>
<g><path style="opacity:1" fill="#b1b7c3" d="M 136.5,238.5 C 137.18,241.343 139.013,243.01 142,243.5C 148.941,240.786 156.108,239.953 163.5,241C 170.724,243.279 177.391,246.612 183.5,251C 188.435,252.267 193.435,253.1 198.5,253.5C 198.5,252.5 198.5,251.5 198.5,250.5C 193.277,250.464 188.277,249.464 183.5,247.5C 184.167,247.167 184.833,246.833 185.5,246.5C 190.052,247.986 194.719,248.652 199.5,248.5C 199.238,247.022 199.571,245.689 200.5,244.5C 200.833,244.833 201.167,245.167 201.5,245.5C 200.583,248.758 200.249,252.091 200.5,255.5C 194.166,254.75 187.833,253.916 181.5,253C 176.115,247.974 169.782,244.641 162.5,243C 154.44,242.689 146.44,243.022 138.5,244C 136.845,242.556 136.178,240.722 136.5,238.5 Z"/></g>
<g><path style="opacity:1" fill="#edeeef" d="M 113.5,252.5 C 119.991,252.156 122.825,255.156 122,261.5C 118.352,266.331 114.352,266.665 110,262.5C 108.581,258.082 109.748,254.749 113.5,252.5 Z"/></g>
<g><path style="opacity:1" fill="#f5f6f7" d="M 149.5,252.5 C 156.877,251.689 163.877,252.856 170.5,256C 175.534,260.699 180.2,265.699 184.5,271C 186.167,272 187.833,273 189.5,274C 200.833,274.333 212.167,274.667 223.5,275C 236.562,280.916 238.896,289.583 230.5,301C 228.13,302.036 225.63,302.536 223,302.5C 201.998,299.907 180.998,297.24 160,294.5C 137.926,300.421 128.259,292.088 131,269.5C 134.85,261.183 141.016,255.516 149.5,252.5 Z"/></g>
<g><path style="opacity:1" fill="#d1d3d7" d="M 211.5,245.5 C 212.376,245.369 213.043,245.702 213.5,246.5C 209.894,250.16 209.561,254.16 212.5,258.5C 212.167,258.833 211.833,259.167 211.5,259.5C 206.277,254.764 206.277,250.097 211.5,245.5 Z"/></g>
<g><path style="opacity:1" fill="#436987" d="M 1707.5,233.5 C 1708.83,234.833 1710.17,236.167 1711.5,237.5C 1714.04,247.577 1714.04,257.577 1711.5,267.5C 1711.67,260.159 1711.5,252.826 1711,245.5C 1710.8,243.618 1710.3,241.952 1709.5,240.5C 1708.59,238.343 1707.93,236.01 1707.5,233.5 Z"/></g>
<g><path style="opacity:1" fill="#d3d5d8" d="M 278.5,252.5 C 283.421,252.043 286.921,254.043 289,258.5C 289.744,261.871 289.244,265.037 287.5,268C 286.668,268.688 286.002,268.521 285.5,267.5C 286.894,264.092 286.728,260.759 285,257.5C 282.594,255.913 280.428,254.247 278.5,252.5 Z"/></g>
<g><path style="opacity:1" fill="#dbdcdf" d="M 111.5,244.5 C 114.941,244.301 118.274,244.801 121.5,246C 122.973,246.71 123.64,247.876 123.5,249.5C 115.996,246.781 109.83,248.448 105,254.5C 103.759,262.684 107.093,268.017 115,270.5C 117.799,270.18 120.299,269.18 122.5,267.5C 123.452,269.045 123.785,270.712 123.5,272.5C 108.002,275.499 100.835,269.165 102,253.5C 104.406,249.592 107.572,246.592 111.5,244.5 Z"/></g>
<g><path style="opacity:1" fill="#a4adb7" d="M 219.5,252.5 C 227.209,255.251 235.209,256.084 243.5,255C 246.199,253.79 246.199,254.457 243.5,257C 235.774,257.551 228.108,257.051 220.5,255.5C 219.873,254.583 219.539,253.583 219.5,252.5 Z"/></g>
<g><path style="opacity:1" fill="#6195b8" d="M 1522.5,220.5 C 1522.44,236.512 1521.94,252.512 1521,268.5C 1520.53,270.246 1519.86,271.913 1519,273.5C 1517.73,273.384 1516.4,273.051 1515,272.5C 1513.69,274.891 1512.69,274.891 1512,272.5C 1509.96,276.446 1507.96,276.446 1506,272.5C 1505.67,273.5 1505.33,274.5 1505,275.5C 1504.5,268.842 1504.33,262.175 1504.5,255.5C 1505.49,249.355 1505.82,243.022 1505.5,236.5C 1505.37,235.761 1505.54,235.094 1506,234.5C 1506.14,237.043 1506.81,239.377 1508,241.5C 1509.59,240.427 1511.09,239.427 1512.5,238.5C 1513.17,239.167 1513.83,239.833 1514.5,240.5C 1514.3,239.471 1514.8,238.471 1516,237.5C 1516.6,239.686 1517.77,239.852 1519.5,238C 1520.09,232.005 1521.09,226.172 1522.5,220.5 Z"/></g>
<g><path style="opacity:1" fill="#7c828c" d="M 202.5,254.5 C 202.5,255.833 202.5,257.167 202.5,258.5C 200.265,258.795 198.265,258.461 196.5,257.5C 198.167,257.5 199.833,257.5 201.5,257.5C 201.263,256.209 201.596,255.209 202.5,254.5 Z"/></g>
<g><path style="opacity:1" fill="#f2f2f4" d="M 246.5,270.5 C 250.777,271.905 252.777,270.239 252.5,265.5C 259.702,260.396 267.702,257.896 276.5,258C 279.683,259.018 281.016,261.185 280.5,264.5C 280.649,268.035 279.316,270.868 276.5,273C 268.302,278.696 259.969,284.196 251.5,289.5C 251.291,282.874 249.291,276.874 245.5,271.5C 245.624,270.893 245.957,270.56 246.5,270.5 Z"/></g>
<g><path style="opacity:1" fill="#3e607a" d="M 1523.5,220.5 C 1523.83,220.5 1524.17,220.5 1524.5,220.5C 1524.5,248.167 1524.5,275.833 1524.5,303.5C 1517.17,303.5 1509.83,303.5 1502.5,303.5C 1502.5,280.833 1502.5,258.167 1502.5,235.5C 1503.47,237.948 1503.81,240.615 1503.5,243.5C 1503.5,263.167 1503.5,282.833 1503.5,302.5C 1510.17,302.5 1516.83,302.5 1523.5,302.5C 1523.5,275.167 1523.5,247.833 1523.5,220.5 Z"/></g>
<g><path style="opacity:1" fill="#33494d" d="M 920.5,149.5 C 920.5,200.833 920.5,252.167 920.5,303.5C 912.833,303.5 905.167,303.5 897.5,303.5C 897.5,281.167 897.5,258.833 897.5,236.5C 897.833,236.5 898.167,236.5 898.5,236.5C 898.5,258.5 898.5,280.5 898.5,302.5C 905.5,302.5 912.5,302.5 919.5,302.5C 919.5,269.5 919.5,236.5 919.5,203.5C 919.5,186.5 919.5,169.5 919.5,152.5C 919.263,151.209 919.596,150.209 920.5,149.5 Z"/></g>
<g><path style="opacity:1" fill="#5486b3" d="M 1685.5,237.5 C 1687.37,237.859 1688.87,238.859 1690,240.5C 1691.92,243.898 1692.92,247.565 1693,251.5C 1693.33,250.167 1693.67,248.833 1694,247.5C 1694.25,248.624 1694.75,249.624 1695.5,250.5C 1695.83,249.833 1696.17,249.167 1696.5,248.5C 1697.5,249.833 1698.5,249.833 1699.5,248.5C 1700.19,249.025 1700.69,249.692 1701,250.5C 1702.88,249.023 1704.88,247.69 1707,246.5C 1707.33,246.833 1707.67,247.167 1708,247.5C 1709.35,245.406 1709.85,243.073 1709.5,240.5C 1710.3,241.952 1710.8,243.618 1711,245.5C 1711.5,252.826 1711.67,260.159 1711.5,267.5C 1711.07,271.277 1709.73,274.61 1707.5,277.5C 1705.01,279.352 1702.51,281.352 1700,283.5C 1696.47,283.888 1692.81,283.888 1689,283.5C 1687.33,286.514 1685.33,288.514 1683,289.5C 1682.5,289 1682,288.5 1681.5,288C 1684.12,285.579 1684.12,284.079 1681.5,283.5C 1683.94,282.069 1685.6,280.069 1686.5,277.5C 1688.54,273.405 1690.04,269.072 1691,264.5C 1691.81,260.311 1691.65,256.311 1690.5,252.5C 1690.62,246.866 1688.96,241.866 1685.5,237.5 Z"/></g>
<g><path style="opacity:1" fill="#77abb8" d="M 1051.5,206.5 C 1051.83,206.5 1052.17,206.5 1052.5,206.5C 1052.5,216.5 1052.5,226.5 1052.5,236.5C 1052.5,242.833 1052.5,249.167 1052.5,255.5C 1051.84,262.382 1051.01,269.382 1050,276.5C 1048.25,275.701 1046.92,276.368 1046,278.5C 1045.33,275.833 1044.67,275.833 1044,278.5C 1043.67,277.833 1043.33,277.167 1043,276.5C 1042.58,277.672 1041.91,278.672 1041,279.5C 1038.91,278.754 1036.91,278.421 1035,278.5C 1034.2,279.804 1033.03,280.471 1031.5,280.5C 1029.11,280.219 1026.78,280.219 1024.5,280.5C 1024.17,281.167 1023.83,281.833 1023.5,282.5C 1022.46,280.009 1021.63,280.009 1021,282.5C 1019.11,281.903 1017.28,281.569 1015.5,281.5C 1015.17,282.167 1014.83,282.833 1014.5,283.5C 1010.75,279.925 1007.59,275.925 1005,271.5C 1004.33,270.748 1003.5,270.414 1002.5,270.5C 991.682,254.877 981.348,238.877 971.5,222.5C 976.257,225.76 980.257,229.927 983.5,235C 985.135,235.54 986.468,235.04 987.5,233.5C 988.748,234.04 989.915,234.707 991,235.5C 992.079,233.606 993.413,233.273 995,234.5C 993.946,230.196 992.612,225.862 991,221.5C 987.669,217.165 985.169,212.498 983.5,207.5C 989.481,216.141 995.814,224.475 1002.5,232.5C 1002.34,233.873 1002.51,235.207 1003,236.5C 1008.15,244.719 1013.15,253.052 1018,261.5C 1021.74,264.793 1024.91,268.626 1027.5,273C 1028.83,273.667 1030.17,273.667 1031.5,273C 1032.49,252.242 1032.83,231.409 1032.5,210.5C 1032.83,210.5 1033.17,210.5 1033.5,210.5C 1032.86,220.36 1033.86,230.027 1036.5,239.5C 1039.88,238.747 1043.05,238.747 1046,239.5C 1046.64,237.697 1047.8,236.364 1049.5,235.5C 1050.27,225.828 1050.94,216.161 1051.5,206.5 Z"/></g>
<g><path style="opacity:1" fill="#9197a9" d="M 252.5,265.5 C 252.777,270.239 250.777,271.905 246.5,270.5C 248.475,268.863 250.475,267.196 252.5,265.5 Z"/></g>
<g><path style="opacity:1" fill="#7eb3b9" d="M 709.5,216.5 C 710.591,233.995 711.424,251.662 712,269.5C 713.028,271.361 714.528,272.695 716.5,273.5C 719.285,272.097 721.952,271.097 724.5,270.5C 725.086,270.709 725.586,271.043 726,271.5C 727.014,267.759 727.847,264.093 728.5,260.5C 728.222,269.553 728.556,278.553 729.5,287.5C 728.25,287.423 727.417,286.756 727,285.5C 726.316,286.784 726.483,287.951 727.5,289C 726.285,291.096 725.451,290.929 725,288.5C 724.577,289.956 723.744,290.456 722.5,290C 723.696,289.346 723.696,288.846 722.5,288.5C 721.571,291.001 720.071,291.667 718,290.5C 717.055,290.905 716.388,291.572 716,292.5C 715.683,290.699 715.016,290.366 714,291.5C 713,289.5 712,287.5 711,285.5C 710.501,291.157 710.334,296.824 710.5,302.5C 709.502,274.005 709.169,245.338 709.5,216.5 Z"/></g>
<g><path style="opacity:1" fill="#71a6bb" d="M 1152.5,227.5 C 1152.98,243.23 1152.32,258.897 1150.5,274.5C 1150.4,276.619 1149.57,278.286 1148,279.5C 1147.59,279.043 1147.09,278.709 1146.5,278.5C 1143.54,279.715 1141.38,281.715 1140,284.5C 1139.52,283.552 1139.35,282.552 1139.5,281.5C 1138.5,281.5 1137.5,281.5 1136.5,281.5C 1134.96,269.23 1134.29,256.897 1134.5,244.5C 1135.22,244.918 1135.72,245.584 1136,246.5C 1137.97,243.774 1139.97,243.44 1142,245.5C 1144.1,242.253 1146.1,241.92 1148,244.5C 1149,241.833 1150,241.833 1151,244.5C 1151.17,238.652 1151.67,232.985 1152.5,227.5 Z"/></g>
<g><path style="opacity:1" fill="#4c738b" d="M 1429.5,238.5 C 1430.29,239.609 1430.79,240.942 1431,242.5C 1431.74,250.875 1431.41,259.208 1430,267.5C 1429.12,270.401 1427.96,273.068 1426.5,275.5C 1427.17,272.167 1427.83,268.833 1428.5,265.5C 1429.49,256.682 1429.83,247.682 1429.5,238.5 Z"/></g>
<g><path style="opacity:1" fill="#405e6b" d="M 1052.5,236.5 C 1052.83,236.5 1053.17,236.5 1053.5,236.5C 1053.5,258.833 1053.5,281.167 1053.5,303.5C 1043.32,303.827 1033.32,303.494 1023.5,302.5C 1033.17,302.5 1042.83,302.5 1052.5,302.5C 1052.5,286.833 1052.5,271.167 1052.5,255.5C 1052.5,249.167 1052.5,242.833 1052.5,236.5 Z"/></g>
<g><path style="opacity:1" fill="#8dc3bf" d="M 469.5,246.5 C 471.786,249.463 473.619,252.796 475,256.5C 476,257.167 477,257.833 478,258.5C 479.016,257.366 479.683,257.699 480,259.5C 480.576,256.876 481.91,256.209 484,257.5C 485.309,255.109 486.309,255.109 487,257.5C 491.109,257.529 492.943,255.529 492.5,251.5C 493.855,253.521 495.521,255.188 497.5,256.5C 499.167,258.5 500.833,260.5 502.5,262.5C 502.343,263.873 502.51,265.207 503,266.5C 508.103,269.766 511.937,274.1 514.5,279.5C 516.336,280.919 518.336,282.086 520.5,283C 521.304,284.771 522.471,286.271 524,287.5C 524.333,287.167 524.667,286.833 525,286.5C 525.617,289.176 524.784,289.843 522.5,288.5C 521.667,289.5 520.833,290.5 520,291.5C 518.067,288.865 516.067,289.198 514,292.5C 513.667,291.833 513.333,291.167 513,290.5C 512.311,291.357 511.478,292.023 510.5,292.5C 509.304,292.154 509.304,291.654 510.5,291C 509.551,290.383 508.718,290.549 508,291.5C 507.147,289.875 506.147,289.542 505,290.5C 503.661,287.906 501.494,286.406 498.5,286C 499.705,283.766 499.039,282.099 496.5,281C 493.249,280.332 490.249,279.166 487.5,277.5C 479.184,268.538 473.184,258.204 469.5,246.5 Z"/></g>
<g><path style="opacity:1" fill="#5788b1" d="M 1523.5,212.5 C 1523.5,215.167 1523.5,217.833 1523.5,220.5C 1523.5,247.833 1523.5,275.167 1523.5,302.5C 1516.83,302.5 1510.17,302.5 1503.5,302.5C 1503.5,282.833 1503.5,263.167 1503.5,243.5C 1504.48,247.298 1504.82,251.298 1504.5,255.5C 1504.33,262.175 1504.5,268.842 1505,275.5C 1505.33,274.5 1505.67,273.5 1506,272.5C 1507.96,276.446 1509.96,276.446 1512,272.5C 1512.69,274.891 1513.69,274.891 1515,272.5C 1516.4,273.051 1517.73,273.384 1519,273.5C 1519.86,271.913 1520.53,270.246 1521,268.5C 1521.94,252.512 1522.44,236.512 1522.5,220.5C 1522.19,217.615 1522.53,214.948 1523.5,212.5 Z"/></g>
<g><path style="opacity:1" fill="#758299" d="M 136.5,267.5 C 137.497,267.47 138.164,267.97 138.5,269C 135.176,275.75 136.176,281.75 141.5,287C 145.072,289.637 149.072,291.303 153.5,292C 141.191,295.211 134.524,290.378 133.5,277.5C 133.084,273.668 134.084,270.335 136.5,267.5 Z"/></g>
<g><path style="opacity:1" fill="#95a0b4" d="M 276.5,265.5 C 277.573,266.251 277.74,267.251 277,268.5C 269.306,274.36 261.473,280.027 253.5,285.5C 252.246,283.741 252.579,282.241 254.5,281C 262.426,276.549 269.759,271.382 276.5,265.5 Z"/></g>
<g><path style="opacity:1" fill="#476363" d="M 491.5,238.5 C 505.531,273.373 531.531,289.873 569.5,288C 582.836,287.302 595.502,284.135 607.5,278.5C 605.24,282.161 601.907,284.661 597.5,286C 592.226,287.04 587.226,288.54 582.5,290.5C 581.833,290.5 581.167,290.5 580.5,290.5C 573.675,290.905 566.841,291.239 560,291.5C 552.329,291.184 544.829,290.184 537.5,288.5C 531.854,286.846 526.521,284.346 521.5,281C 514.636,275.302 508.303,269.135 502.5,262.5C 500.833,260.5 499.167,258.5 497.5,256.5C 495.952,253.582 494.452,250.582 493,247.5C 491.851,244.607 491.351,241.607 491.5,238.5 Z"/></g>
<g><path style="opacity:1" fill="#486d84" d="M 1350.5,289.5 C 1347.24,289.082 1344.24,287.915 1341.5,286C 1336.33,282.325 1331.33,278.492 1326.5,274.5C 1320.85,277.156 1316.51,281.156 1313.5,286.5C 1312.5,286.167 1311.83,285.5 1311.5,284.5C 1315.59,281.242 1319.25,277.409 1322.5,273C 1324.5,272.333 1326.5,272.333 1328.5,273C 1330.83,275.333 1333.17,277.667 1335.5,280C 1340.9,282.692 1345.9,285.858 1350.5,289.5 Z"/></g>
<g><path style="opacity:1" fill="#2e4b66" d="M 1690.5,252.5 C 1691.65,256.311 1691.81,260.311 1691,264.5C 1690.04,269.072 1688.54,273.405 1686.5,277.5C 1671.46,293.114 1653.46,297.614 1632.5,291C 1629.5,289.333 1626.5,287.667 1623.5,286C 1618,281.992 1612.66,277.825 1607.5,273.5C 1602.78,277.183 1598.11,280.85 1593.5,284.5C 1592.71,284.217 1592.04,283.717 1591.5,283C 1597.02,277.979 1602.69,273.146 1608.5,268.5C 1627.65,290.364 1650.32,294.864 1676.5,282C 1686.65,274.858 1691.32,265.025 1690.5,252.5 Z"/></g>
<g><path style="opacity:1" fill="#4e7fb0" d="M 1686.5,277.5 C 1685.6,280.069 1683.94,282.069 1681.5,283.5C 1684.12,284.079 1684.12,285.579 1681.5,288C 1682,288.5 1682.5,289 1683,289.5C 1685.33,288.514 1687.33,286.514 1689,283.5C 1692.81,283.888 1696.47,283.888 1700,283.5C 1702.51,281.352 1705.01,279.352 1707.5,277.5C 1704.29,285.058 1699.29,291.225 1692.5,296C 1672.12,307.702 1650.45,310.702 1627.5,305C 1614.04,301.448 1602.71,294.614 1593.5,284.5C 1598.11,280.85 1602.78,277.183 1607.5,273.5C 1612.66,277.825 1618,281.992 1623.5,286C 1626.5,287.667 1629.5,289.333 1632.5,291C 1653.46,297.614 1671.46,293.114 1686.5,277.5 Z"/></g>
<g><path style="opacity:1" fill="#2e4553" d="M 1156.5,283.5 C 1188.83,283.5 1221.17,283.5 1253.5,283.5C 1253.5,290.167 1253.5,296.833 1253.5,303.5C 1213,303.832 1172.66,303.499 1132.5,302.5C 1132.83,302.5 1133.17,302.5 1133.5,302.5C 1172.83,302.5 1212.17,302.5 1251.5,302.5C 1252.49,297.695 1252.82,292.695 1252.5,287.5C 1252.59,286.504 1252.25,285.671 1251.5,285C 1219.66,284.832 1188,284.332 1156.5,283.5 Z"/></g>
<g><path style="opacity:1" fill="#668f8e" d="M 608.5,225.5 C 609.338,225.842 609.672,226.508 609.5,227.5C 609.667,244.837 609.5,262.17 609,279.5C 607.142,282.355 604.642,284.522 601.5,286C 595.228,287.814 588.894,289.314 582.5,290.5C 587.226,288.54 592.226,287.04 597.5,286C 601.907,284.661 605.24,282.161 607.5,278.5C 608.497,261.008 608.83,243.341 608.5,225.5 Z"/></g>
<g><path style="opacity:1" fill="#83b8bb" d="M 609.5,227.5 C 609.978,236.029 611.311,244.529 613.5,253C 614.996,253.507 616.163,253.007 617,251.5C 620.177,252.77 622.844,252.103 625,249.5C 626.105,245.689 627.272,242.022 628.5,238.5C 628.5,256.5 628.5,274.5 628.5,292.5C 615.389,299.451 601.389,303.951 586.5,306C 554.519,312.271 525.186,306.271 498.5,288C 494.376,284.945 490.709,281.445 487.5,277.5C 490.249,279.166 493.249,280.332 496.5,281C 499.039,282.099 499.705,283.766 498.5,286C 501.494,286.406 503.661,287.906 505,290.5C 506.147,289.542 507.147,289.875 508,291.5C 508.718,290.549 509.551,290.383 510.5,291C 509.304,291.654 509.304,292.154 510.5,292.5C 511.478,292.023 512.311,291.357 513,290.5C 513.333,291.167 513.667,291.833 514,292.5C 516.067,289.198 518.067,288.865 520,291.5C 520.833,290.5 521.667,289.5 522.5,288.5C 524.784,289.843 525.617,289.176 525,286.5C 524.667,286.833 524.333,287.167 524,287.5C 522.471,286.271 521.304,284.771 520.5,283C 518.336,282.086 516.336,280.919 514.5,279.5C 511.937,274.1 508.103,269.766 503,266.5C 502.51,265.207 502.343,263.873 502.5,262.5C 508.303,269.135 514.636,275.302 521.5,281C 526.521,284.346 531.854,286.846 537.5,288.5C 540.503,290.262 543.837,291.428 547.5,292C 557.5,292.667 567.5,292.667 577.5,292C 578.737,291.768 579.737,291.268 580.5,290.5C 581.167,290.5 581.833,290.5 582.5,290.5C 588.894,289.314 595.228,287.814 601.5,286C 604.642,284.522 607.142,282.355 609,279.5C 609.5,262.17 609.667,244.837 609.5,227.5 Z"/></g>
<g><path style="opacity:1" fill="#3c565b" d="M 731.5,283.5 C 764.167,283.5 796.833,283.5 829.5,283.5C 829.5,285.167 829.5,286.833 829.5,288.5C 797.721,286.684 765.721,285.851 733.5,286C 732.619,285.292 731.953,284.458 731.5,283.5 Z"/></g>
<g><path style="opacity:1" fill="#6ea2b8" d="M 1052.5,255.5 C 1052.5,271.167 1052.5,286.833 1052.5,302.5C 1042.83,302.5 1033.17,302.5 1023.5,302.5C 1016.02,292.212 1009.02,281.546 1002.5,270.5C 1003.5,270.414 1004.33,270.748 1005,271.5C 1007.59,275.925 1010.75,279.925 1014.5,283.5C 1014.83,282.833 1015.17,282.167 1015.5,281.5C 1017.28,281.569 1019.11,281.903 1021,282.5C 1021.63,280.009 1022.46,280.009 1023.5,282.5C 1023.83,281.833 1024.17,281.167 1024.5,280.5C 1026.78,280.219 1029.11,280.219 1031.5,280.5C 1033.03,280.471 1034.2,279.804 1035,278.5C 1036.91,278.421 1038.91,278.754 1041,279.5C 1041.91,278.672 1042.58,277.672 1043,276.5C 1043.33,277.167 1043.67,277.833 1044,278.5C 1044.67,275.833 1045.33,275.833 1046,278.5C 1046.92,276.368 1048.25,275.701 1050,276.5C 1051.01,269.382 1051.84,262.382 1052.5,255.5 Z"/></g>
<g><path style="opacity:1" fill="#375362" d="M 1154.5,284.5 C 1154.5,284.167 1154.5,283.833 1154.5,283.5C 1155.17,283.5 1155.83,283.5 1156.5,283.5C 1188,284.332 1219.66,284.832 1251.5,285C 1252.25,285.671 1252.59,286.504 1252.5,287.5C 1220.57,286.674 1188.57,286.174 1156.5,286C 1155.96,285.283 1155.29,284.783 1154.5,284.5 Z"/></g>
<g><path style="opacity:1" fill="#53777f" d="M 730.5,283.5 C 730.833,283.5 731.167,283.5 731.5,283.5C 731.953,284.458 732.619,285.292 733.5,286C 765.721,285.851 797.721,286.684 829.5,288.5C 829.5,293.167 829.5,297.833 829.5,302.5C 829.167,302.5 828.833,302.5 828.5,302.5C 828.777,297.767 828.443,293.1 827.5,288.5C 795.839,287.667 764.172,287.167 732.5,287C 731.177,286.184 730.511,285.017 730.5,283.5 Z"/></g>
<g><path style="opacity:1" fill="#50788e" d="M 1154.5,284.5 C 1155.29,284.783 1155.96,285.283 1156.5,286C 1188.57,286.174 1220.57,286.674 1252.5,287.5C 1252.82,292.695 1252.49,297.695 1251.5,302.5C 1251.5,297.833 1251.5,293.167 1251.5,288.5C 1219.5,288.667 1187.5,288.5 1155.5,288C 1154.66,286.989 1154.33,285.822 1154.5,284.5 Z"/></g>
<g><path style="opacity:1" fill="#314b5d" d="M 1403.5,273.5 C 1403.65,274.552 1403.48,275.552 1403,276.5C 1390.63,290.567 1375.13,295.567 1356.5,291.5C 1354.1,291.741 1352.1,291.074 1350.5,289.5C 1345.9,285.858 1340.9,282.692 1335.5,280C 1333.17,277.667 1330.83,275.333 1328.5,273C 1326.5,272.333 1324.5,272.333 1322.5,273C 1319.25,277.409 1315.59,281.242 1311.5,284.5C 1310.71,284.217 1310.04,283.717 1309.5,283C 1315.02,277.979 1320.69,273.146 1326.5,268.5C 1347.02,291.503 1370.69,295.336 1397.5,280C 1399.73,277.937 1401.73,275.771 1403.5,273.5 Z"/></g>
<g><path style="opacity:1" fill="#c4c9d1" d="M 143.5,267.5 C 146.411,274.996 152.078,279.163 160.5,280C 183.443,284.075 206.443,287.575 229.5,290.5C 229.896,287.956 229.229,285.789 227.5,284C 229.409,283.552 230.576,284.385 231,286.5C 231.535,291.032 229.368,293.032 224.5,292.5C 201.854,288.622 179.187,284.788 156.5,281C 149.153,279.157 144.819,274.657 143.5,267.5 Z"/></g>
<g><path style="opacity:1" fill="#72a2ab" d="M 730.5,220.5 C 730.5,241.5 730.5,262.5 730.5,283.5C 730.511,285.017 731.177,286.184 732.5,287C 764.172,287.167 795.839,287.667 827.5,288.5C 828.443,293.1 828.777,297.767 828.5,302.5C 827.833,302.5 827.167,302.5 826.5,302.5C 826.5,298.167 826.5,293.833 826.5,289.5C 794.85,290.621 763.183,290.788 731.5,290C 730.244,289.583 729.577,288.75 729.5,287.5C 728.556,278.553 728.222,269.553 728.5,260.5C 728.333,247.829 728.5,235.162 729,222.5C 729.278,221.584 729.778,220.918 730.5,220.5 Z"/></g>
<g><path style="opacity:1" fill="#dcdee3" d="M 88.5,267.5 C 89.6935,267.97 90.3601,268.97 90.5,270.5C 88.6289,276.552 85.2956,281.718 80.5,286C 76.9878,288.257 73.6544,290.757 70.5,293.5C 69.479,292.998 69.3123,292.332 70,291.5C 77,287.167 82.6667,281.5 87,274.5C 87.2904,272.08 87.7904,269.746 88.5,267.5 Z"/></g>
<g><path style="opacity:1" fill="#7ab0bd" d="M 729.5,287.5 C 729.577,288.75 730.244,289.583 731.5,290C 763.183,290.788 794.85,290.621 826.5,289.5C 826.5,293.833 826.5,298.167 826.5,302.5C 787.833,302.5 749.167,302.5 710.5,302.5C 710.334,296.824 710.501,291.157 711,285.5C 712,287.5 713,289.5 714,291.5C 715.016,290.366 715.683,290.699 716,292.5C 716.388,291.572 717.055,290.905 718,290.5C 720.071,291.667 721.571,291.001 722.5,288.5C 723.696,288.846 723.696,289.346 722.5,290C 723.744,290.456 724.577,289.956 725,288.5C 725.451,290.929 726.285,291.096 727.5,289C 726.483,287.951 726.316,286.784 727,285.5C 727.417,286.756 728.25,287.423 729.5,287.5 Z"/></g>
<g><path style="opacity:1" fill="#6598b6" d="M 1154.5,219.5 C 1154.5,240.833 1154.5,262.167 1154.5,283.5C 1154.5,283.833 1154.5,284.167 1154.5,284.5C 1154.33,285.822 1154.66,286.989 1155.5,288C 1187.5,288.5 1219.5,288.667 1251.5,288.5C 1251.5,293.167 1251.5,297.833 1251.5,302.5C 1212.17,302.5 1172.83,302.5 1133.5,302.5C 1133.5,281.167 1133.5,259.833 1133.5,238.5C 1134.46,240.265 1134.79,242.265 1134.5,244.5C 1134.29,256.897 1134.96,269.23 1136.5,281.5C 1137.5,281.5 1138.5,281.5 1139.5,281.5C 1139.35,282.552 1139.52,283.552 1140,284.5C 1141.38,281.715 1143.54,279.715 1146.5,278.5C 1147.09,278.709 1147.59,279.043 1148,279.5C 1149.57,278.286 1150.4,276.619 1150.5,274.5C 1152.32,258.897 1152.98,243.23 1152.5,227.5C 1152.34,225.143 1152.5,222.81 1153,220.5C 1153.38,219.944 1153.88,219.611 1154.5,219.5 Z"/></g>
<g><path style="opacity:1" fill="#668f91" d="M 537.5,288.5 C 544.829,290.184 552.329,291.184 560,291.5C 566.841,291.239 573.675,290.905 580.5,290.5C 579.737,291.268 578.737,291.768 577.5,292C 567.5,292.667 557.5,292.667 547.5,292C 543.837,291.428 540.503,290.262 537.5,288.5 Z"/></g>
<g><path style="opacity:1" fill="#a0a9ba" d="M 139.5,275.5 C 144.181,280.18 149.847,283.346 156.5,285C 181.068,289.321 205.735,292.988 230.5,296C 228.904,299.3 226.237,300.8 222.5,300.5C 203.544,297.682 184.544,295.182 165.5,293C 158.972,291.602 152.639,289.602 146.5,287C 142.472,284.097 140.139,280.264 139.5,275.5 Z"/></g>
<g><path style="opacity:1" fill="#4f7a9a" d="M 1408.5,263.5 C 1408.17,266.167 1407.83,268.833 1407.5,271.5C 1406.88,271.611 1406.38,271.944 1406,272.5C 1405.67,274.5 1405.33,276.5 1405,278.5C 1395.88,288.858 1384.55,294.191 1371,294.5C 1368.17,294.333 1365.33,294.167 1362.5,294C 1360.15,293.76 1358.15,292.927 1356.5,291.5C 1375.13,295.567 1390.63,290.567 1403,276.5C 1403.48,275.552 1403.65,274.552 1403.5,273.5C 1405.18,270.093 1406.85,266.759 1408.5,263.5 Z"/></g>
<g><path style="opacity:1" fill="#5c8eb4" d="M 1428.5,265.5 C 1427.83,268.833 1427.17,272.167 1426.5,275.5C 1421.35,288.154 1412.35,296.987 1399.5,302C 1373.58,311.031 1348.58,309.031 1324.5,296C 1320.39,293.288 1316.72,290.122 1313.5,286.5C 1316.51,281.156 1320.85,277.156 1326.5,274.5C 1331.33,278.492 1336.33,282.325 1341.5,286C 1344.24,287.915 1347.24,289.082 1350.5,289.5C 1352.1,291.074 1354.1,291.741 1356.5,291.5C 1358.15,292.927 1360.15,293.76 1362.5,294C 1365.33,294.167 1368.17,294.333 1371,294.5C 1384.55,294.191 1395.88,288.858 1405,278.5C 1405.33,276.5 1405.67,274.5 1406,272.5C 1406.38,271.944 1406.88,271.611 1407.5,271.5C 1408.94,270.665 1409.94,269.332 1410.5,267.5C 1411.22,269.778 1412.38,271.111 1414,271.5C 1414.33,270.833 1414.67,270.167 1415,269.5C 1418.32,269.177 1421.32,269.177 1424,269.5C 1425.3,268.91 1426.13,267.91 1426.5,266.5C 1427.58,259.584 1428.24,259.251 1428.5,265.5 Z"/></g>
<g><path style="opacity:1" fill="#6b9ba9" d="M 919.5,203.5 C 919.5,236.5 919.5,269.5 919.5,302.5C 912.5,302.5 905.5,302.5 898.5,302.5C 898.5,280.5 898.5,258.5 898.5,236.5C 898.5,230.5 898.5,224.5 898.5,218.5C 898.833,218.5 899.167,218.5 899.5,218.5C 899.5,221.5 899.5,224.5 899.5,227.5C 899.156,251.247 899.989,274.913 902,298.5C 902.667,299.167 903.333,299.833 904,300.5C 905,299.167 906,299.167 907,300.5C 908.989,298.616 910.989,298.283 913,299.5C 915.218,297.355 916.551,294.688 917,291.5C 917.5,279.838 917.667,268.171 917.5,256.5C 917.734,238.659 918.4,220.992 919.5,203.5 Z"/></g>
<g><path style="opacity:1" fill="#77acbc" d="M 899.5,227.5 C 899.833,227.5 900.167,227.5 900.5,227.5C 900.334,237.506 900.5,247.506 901,257.5C 902,259.167 903.333,260.5 905,261.5C 905.667,258.833 906.333,258.833 907,261.5C 909.237,260.944 911.237,259.944 913,258.5C 913.308,259.308 913.808,259.975 914.5,260.5C 915.298,258.922 915.798,257.256 916,255.5C 916.383,256.056 916.883,256.389 917.5,256.5C 917.667,268.171 917.5,279.838 917,291.5C 916.551,294.688 915.218,297.355 913,299.5C 910.989,298.283 908.989,298.616 907,300.5C 906,299.167 905,299.167 904,300.5C 903.333,299.833 902.667,299.167 902,298.5C 899.989,274.913 899.156,251.247 899.5,227.5 Z"/></g>
<g><path style="opacity:1" fill="#dfe1e2" d="M 233.5,275.5 C 234.251,274.427 235.251,274.26 236.5,275C 243.648,281.056 245.481,288.556 242,297.5C 235.938,302.772 235.272,302.105 240,295.5C 242.756,287.177 240.589,280.51 233.5,275.5 Z"/></g>
<g><path style="opacity:1" fill="#456369" d="M 708.5,202.5 C 708.833,202.5 709.167,202.5 709.5,202.5C 709.5,207.167 709.5,211.833 709.5,216.5C 709.169,245.338 709.502,274.005 710.5,302.5C 749.167,302.5 787.833,302.5 826.5,302.5C 827.167,302.5 827.833,302.5 828.5,302.5C 828.833,302.5 829.167,302.5 829.5,302.5C 789.337,303.499 749.003,303.832 708.5,303.5C 708.5,269.833 708.5,236.167 708.5,202.5 Z"/></g>
<g><path style="opacity:1" fill="#a4aebb" d="M 100.5,288.5 C 108.142,287.102 114.642,289.102 120,294.5C 122.4,300.236 121.733,305.569 118,310.5C 113,316.167 108,321.833 103,327.5C 101.235,329.774 99.0682,331.441 96.5,332.5C 94.2956,332.473 93.4622,331.473 94,329.5C 100.667,322.167 107.333,314.833 114,307.5C 119.192,301.48 118.358,296.313 111.5,292C 107.619,290.81 103.619,290.143 99.5,290C 100.056,289.617 100.389,289.117 100.5,288.5 Z"/></g>
<g><path style="opacity:1" fill="#cbd0da" d="M 112.5,300.5 C 113.376,300.369 114.043,300.702 114.5,301.5C 109.219,308.284 103.386,314.617 97,320.5C 96.3333,319.833 96.3333,319.167 97,318.5C 103.147,313.198 108.314,307.198 112.5,300.5 Z"/></g>
</svg>
