<?xml version="1.0" encoding="UTF-8"?>
<!DOCTYPE svg PUBLIC "-//W3C//DTD SVG 1.1//EN" "http://www.w3.org/Graphics/SVG/1.1/DTD/svg11.dtd">
<svg xmlns="http://www.w3.org/2000/svg" version="1.1" width="1041.277" height="554.141" viewBox="0 0 400.277 400.141" style="shape-rendering:geometricPrecision; text-rendering:geometricPrecision; image-rendering:optimizeQuality; fill-rule:evenodd; clip-rule:evenodd" xmlns:xlink="http://www.w3.org/1999/xlink">
<g><path style="opacity:1" fill="#fefefe" d="M -0.5,-0.5 C 152.833,-0.5 306.167,-0.5 459.5,-0.5C 459.5,152.833 459.5,306.167 459.5,459.5C 306.167,459.5 152.833,459.5 -0.5,459.5C -0.5,306.167 -0.5,152.833 -0.5,-0.5 Z"/></g>
<g><path style="opacity:1" fill="#192336" d="M 216.5,64.5 C 225.236,63.0599 228.403,66.3932 226,74.5C 225,75.1667 224,75.8333 223,76.5C 222.333,83.1667 222.333,89.8333 223,96.5C 223.667,97.1667 224.333,97.8333 225,98.5C 225.667,102.5 225.667,106.5 225,110.5C 223.644,111.38 222.144,111.714 220.5,111.5C 220.665,108.15 220.498,104.817 220,101.5C 215.5,97 211,92.5 206.5,88C 203.5,87.6667 200.5,87.3333 197.5,87C 192.633,83.5156 192.3,79.6823 196.5,75.5C 204.499,73.1662 208.832,76.1662 209.5,84.5C 211.823,86.9887 214.323,89.3221 217,91.5C 217.667,86.5 217.667,81.5 217,76.5C 212.637,72.5722 212.47,68.5722 216.5,64.5 Z"/></g>
<g><path style="opacity:1" fill="#172134" d="M 275.5,91.5 C 286.262,90.7387 288.929,94.9053 283.5,104C 277.754,102.382 271.754,101.715 265.5,102C 259.865,106.633 254.532,111.633 249.5,117C 248.207,117.49 246.873,117.657 245.5,117.5C 245.351,116.448 245.517,115.448 246,114.5C 251.682,108.985 257.182,103.319 262.5,97.5C 266.429,96.5672 270.429,96.2338 274.5,96.5C 274.366,94.7085 274.699,93.0418 275.5,91.5 Z"/></g>
<g><path style="opacity:1" fill="#131e2f" d="M 239.5,64.5 C 248.695,64.7083 250.861,68.7083 246,76.5C 245.333,81.8333 245.333,87.1667 246,92.5C 248.57,89.0527 251.57,86.0527 255,83.5C 254.454,75.8426 257.954,73.0093 265.5,75C 269.5,79 269.5,83 265.5,87C 262.5,87.3333 259.5,87.6667 256.5,88C 252.027,92.473 247.527,96.973 243,101.5C 242.502,104.817 242.335,108.15 242.5,111.5C 241.167,111.5 239.833,111.5 238.5,111.5C 238.368,102.996 239.035,94.6623 240.5,86.5C 241.082,81.2419 239.582,76.9085 236,73.5C 234.665,69.3919 235.832,66.3919 239.5,64.5 Z"/></g>
<g><path style="opacity:1" fill="#192333" d="M 178.5,91.5 C 183.158,90.5142 186.824,91.8476 189.5,95.5C 193.571,96.1373 197.571,96.9706 201.5,98C 206.764,103.321 211.931,108.821 217,114.5C 217.483,115.448 217.649,116.448 217.5,117.5C 216.127,117.657 214.793,117.49 213.5,117C 208.468,111.633 203.135,106.633 197.5,102C 191.232,101.52 185.232,102.187 179.5,104C 174.603,100.138 174.27,95.9718 178.5,91.5 Z"/></g>
<g><path style="opacity:1" fill="#141f32" d="M 174.5,110.5 C 179.419,109.372 183.085,110.872 185.5,115C 194.597,113.382 201.931,116.049 207.5,123C 211.871,123.828 216.205,123.661 220.5,122.5C 223.637,116.182 228.637,113.682 235.5,115C 238.695,116.695 241.028,119.195 242.5,122.5C 250.773,125.044 257.44,122.878 262.5,116C 267.167,115.667 271.833,115.333 276.5,115C 279.564,110.584 283.564,109.584 288.5,112C 292.644,115.979 292.31,119.645 287.5,123C 283.712,124.116 280.378,123.45 277.5,121C 268.702,118.431 261.702,120.764 256.5,128C 251.833,128.333 247.167,128.667 242.5,129C 240.553,132.07 238.053,134.57 235,136.5C 234.333,141.167 234.333,145.833 235,150.5C 241.167,144.333 247.333,138.167 253.5,132C 265.167,131.333 276.833,131.333 288.5,132C 290.394,133.079 290.727,134.413 289.5,136C 278.167,136.333 266.833,136.667 255.5,137C 248.667,143.833 241.833,150.667 235,157.5C 233.378,162.407 234.712,166.074 239,168.5C 242.547,180.277 238.38,185.111 226.5,183C 219.833,177.333 219.833,171.667 226.5,166C 227.448,165.517 228.448,165.351 229.5,165.5C 229.664,162.813 229.497,160.146 229,157.5C 222.292,150.625 215.459,143.958 208.5,137.5C 196.848,136.667 185.181,136.167 173.5,136C 172.273,134.413 172.606,133.079 174.5,132C 186.167,131.333 197.833,131.333 209.5,132C 216.096,137.981 222.596,144.148 229,150.5C 229.828,145.798 229.662,141.131 228.5,136.5C 225.027,134.86 222.36,132.36 220.5,129C 215.5,128.667 210.5,128.333 205.5,128C 203.5,125.667 201.5,123.333 199.5,121C 194.5,120.333 189.5,120.333 184.5,121C 181.638,123.412 178.305,124.079 174.5,123C 170.552,118.759 170.552,114.593 174.5,110.5 Z"/></g>
<g><path style="opacity:1" fill="#eff0f1" d="M 227.5,120.5 C 234.93,118.441 238.097,121.107 237,128.5C 234.225,131.654 231.058,132.154 227.5,130C 224.888,126.836 224.888,123.669 227.5,120.5 Z"/></g>
<g><path style="opacity:1" fill="#131e30" d="M 198.5,143.5 C 207.158,141.66 210.658,144.993 209,153.5C 205,157.5 201,157.5 197,153.5C 196.153,149.928 196.653,146.594 198.5,143.5 Z"/></g>
<g><path style="opacity:1" fill="#141f30" d="M 258.5,142.5 C 265.417,142.975 267.917,146.642 266,153.5C 262.045,157.489 258.045,157.489 254,153.5C 252.391,148.379 253.891,144.712 258.5,142.5 Z"/></g>
<g><path style="opacity:1" fill="#152032" d="M 308.5,233.5 C 308.189,232.522 307.522,231.855 306.5,231.5C 304.929,232.309 303.262,232.643 301.5,232.5C 301.215,230.712 301.548,229.045 302.5,227.5C 302.749,228.582 302.915,229.915 303,231.5C 303.278,230.584 303.778,229.918 304.5,229.5C 304.81,230.738 305.31,230.738 306,229.5C 308.211,223.031 306.044,219.031 299.5,217.5C 298.287,217.747 297.62,218.414 297.5,219.5C 296.542,219.047 295.708,218.381 295,217.5C 294.167,218.333 293.333,219.167 292.5,220C 293.416,220.278 294.082,220.778 294.5,221.5C 290.334,220.944 286.668,221.944 283.5,224.5C 282.855,223.188 281.855,222.188 280.5,221.5C 278.232,222.544 275.899,222.711 273.5,222C 274.624,221.751 275.624,221.251 276.5,220.5C 276.062,219.494 275.396,219.494 274.5,220.5C 273.83,218.709 273.163,217.042 272.5,215.5C 271.317,214.496 269.984,213.662 268.5,213C 261.88,211.863 255.214,211.363 248.5,211.5C 248.5,210.167 248.5,208.833 248.5,207.5C 247.178,207.67 246.011,207.337 245,206.5C 244.581,207.672 243.915,208.672 243,209.5C 241.238,207.619 239.738,205.619 238.5,203.5C 248.642,205.763 258.975,206.763 269.5,206.5C 269.648,202.739 270.648,199.239 272.5,196C 266.374,190.632 264.541,184.132 267,176.5C 270.667,173.833 274.333,173.833 278,176.5C 280.184,179.402 282.184,182.402 284,185.5C 284.557,189.175 285.89,192.508 288,195.5C 289.182,193.656 290.349,191.823 291.5,190C 287.676,183.663 287.509,177.163 291,170.5C 295.075,166.59 299.075,166.59 303,170.5C 305.438,178.706 307.271,187.04 308.5,195.5C 313.047,189.242 318.38,183.742 324.5,179C 338.18,175.009 342.347,179.509 337,192.5C 328.576,204.585 320.576,216.918 313,229.5C 311.629,231.041 310.129,232.375 308.5,233.5 Z"/></g>
<g><path style="opacity:1" fill="#e9eaec" d="M 295.5,173.5 C 297.124,173.36 298.29,174.027 299,175.5C 300.569,179.703 301.402,184.036 301.5,188.5C 299.071,188.415 297.071,187.415 295.5,185.5C 294.235,181.454 294.235,177.454 295.5,173.5 Z"/></g>
<g><path style="opacity:1" fill="#e5e6e8" d="M 326.5,183.5 C 336.079,183.404 336.913,186.071 329,191.5C 326.526,190.424 324.026,189.424 321.5,188.5C 323.006,186.599 324.673,184.932 326.5,183.5 Z"/></g>
<g><path style="opacity:1" fill="#babec6" d="M 271.5,180.5 C 276.178,182.54 278.511,186.206 278.5,191.5C 279.675,191.281 280.675,191.614 281.5,192.5C 279.159,193.712 276.993,193.378 275,191.5C 273.241,187.991 272.074,184.325 271.5,180.5 Z"/></g>
<g><path style="opacity:1" fill="#e9eaec" d="M 294.5,193.5 C 296.833,193.5 299.167,193.5 301.5,193.5C 301.759,199.462 300.593,205.129 298,210.5C 294.912,212.294 291.746,213.961 288.5,215.5C 287.369,213.926 287.202,212.259 288,210.5C 290.024,204.704 292.19,199.038 294.5,193.5 Z"/></g>
<g><path style="opacity:1" fill="#eff0f2" d="M 315.5,194.5 C 318.187,194.336 320.854,194.503 323.5,195C 324.516,195.519 325.182,196.353 325.5,197.5C 322.905,202.605 320.072,207.605 317,212.5C 315.578,214.744 313.744,216.41 311.5,217.5C 308.197,216.197 305.863,213.863 304.5,210.5C 307.696,204.753 311.362,199.419 315.5,194.5 Z"/></g>
<g><path style="opacity:1" fill="#aeb5c1" d="M 276.5,199.5 C 278.833,199.5 281.167,199.5 283.5,199.5C 282.779,204.17 281.946,208.837 281,213.5C 280.804,215.286 279.971,216.619 278.5,217.5C 277.092,213.795 275.758,210.129 274.5,206.5C 274.442,203.922 275.109,201.589 276.5,199.5 Z"/></g>
<g><path style="opacity:1" fill="#f5f5f6" d="M 248.5,211.5 C 255.214,211.363 261.88,211.863 268.5,213C 269.984,213.662 271.317,214.496 272.5,215.5C 273.154,219.683 271.488,222.516 267.5,224C 261.144,224.398 254.811,224.065 248.5,223C 244.21,220.469 243.377,216.969 246,212.5C 246.671,211.748 247.504,211.414 248.5,211.5 Z"/></g>
<g><path style="opacity:1" fill="#121c2f" d="M 238.5,203.5 C 239.738,205.619 241.238,207.619 243,209.5C 243.915,208.672 244.581,207.672 245,206.5C 246.011,207.337 247.178,207.67 248.5,207.5C 248.5,208.833 248.5,210.167 248.5,211.5C 247.504,211.414 246.671,211.748 246,212.5C 243.377,216.969 244.21,220.469 248.5,223C 254.811,224.065 261.144,224.398 267.5,224C 271.488,222.516 273.154,219.683 272.5,215.5C 273.163,217.042 273.83,218.709 274.5,220.5C 275.396,219.494 276.062,219.494 276.5,220.5C 275.624,221.251 274.624,221.751 273.5,222C 275.899,222.711 278.232,222.544 280.5,221.5C 281.855,222.188 282.855,223.188 283.5,224.5C 280.558,225.304 277.891,226.638 275.5,228.5C 273.809,229.864 272.142,231.197 270.5,232.5C 269.624,232.369 268.957,232.702 268.5,233.5C 272.567,238.013 274.567,243.346 274.5,249.5C 282.161,244.175 289.827,238.842 297.5,233.5C 300.953,228.133 299.953,224.133 294.5,221.5C 294.082,220.778 293.416,220.278 292.5,220C 293.333,219.167 294.167,218.333 295,217.5C 295.708,218.381 296.542,219.047 297.5,219.5C 303.625,219.981 305.958,223.314 304.5,229.5C 303.778,229.918 303.278,230.584 303,231.5C 302.915,229.915 302.749,228.582 302.5,227.5C 301.548,229.045 301.215,230.712 301.5,232.5C 303.262,232.643 304.929,232.309 306.5,231.5C 307.522,231.855 308.189,232.522 308.5,233.5C 296.899,242.27 284.899,250.437 272.5,258C 266.529,266.928 258.196,269.928 247.5,267C 233.723,265.603 220.056,263.603 206.5,261C 196.297,260.806 186.13,260.639 176,260.5C 175.167,260.833 174.333,261.167 173.5,261.5C 166.826,270.003 159.992,278.337 153,286.5C 150.926,288.916 148.592,290.916 146,292.5C 142.836,292.233 141.836,290.567 143,287.5C 150.691,280.443 157.691,272.776 164,264.5C 165.514,252.83 160.347,246.164 148.5,244.5C 138.929,247.621 130.596,252.788 123.5,260C 121.866,260.494 120.199,260.66 118.5,260.5C 118.34,258.801 118.506,257.134 119,255.5C 125.613,250.711 131.279,245.044 136,238.5C 137.544,231.916 137.877,225.249 137,218.5C 128.191,225.302 119.357,232.136 110.5,239C 108.833,239.667 107.167,239.667 105.5,239C 104.941,238.275 104.608,237.442 104.5,236.5C 105.954,234.543 107.62,232.71 109.5,231C 118.678,224.577 127.678,217.911 136.5,211C 138.833,210.667 141.167,210.333 143.5,210C 148.852,205.221 155.185,203.221 162.5,204C 172.307,192.116 184.974,187.449 200.5,190C 213.148,194.825 225.814,199.325 238.5,203.5 Z"/></g>
<g><path style="opacity:1" fill="#f6f6f7" d="M 187.5,217.5 C 193.049,217.087 198.382,217.92 203.5,220C 208.812,225.644 214.479,230.977 220.5,236C 230.167,236.333 239.833,236.667 249.5,237C 261.395,241.938 263.395,249.438 255.5,259.5C 253.333,259.833 251.167,260.167 249,260.5C 230.459,258.496 211.959,256.163 193.5,253.5C 182.639,258.051 174.806,255.051 170,244.5C 168.341,230.455 174.174,221.455 187.5,217.5 Z"/></g>
<g><path style="opacity:1" fill="#f1f2f3" d="M 154.5,217.5 C 160.33,217.161 162.83,219.827 162,225.5C 158.333,229.5 154.667,229.5 151,225.5C 150.279,221.946 151.446,219.28 154.5,217.5 Z"/></g>
<g><path style="opacity:1" fill="#e2e3e5" d="M 152.5,210.5 C 155.187,210.336 157.854,210.503 160.5,211C 161.973,211.71 162.64,212.876 162.5,214.5C 149.876,211.624 145.209,216.458 148.5,229C 152.789,232.957 157.456,233.457 162.5,230.5C 163.429,231.689 163.762,233.022 163.5,234.5C 155.848,237.005 149.681,235.005 145,228.5C 142.899,220.389 145.399,214.389 152.5,210.5 Z"/></g>
<g><path style="opacity:1" fill="#dbdde0" d="M 238.5,211.5 C 241.336,211.202 241.836,211.869 240,213.5C 239.518,216.907 239.518,220.24 240,223.5C 236.039,219.876 235.539,215.876 238.5,211.5 Z"/></g>
<g><path style="opacity:1" fill="#f5f6f7" d="M 183.5,195.5 C 189.909,195.183 196.243,195.683 202.5,197C 213.565,200.8 224.565,204.8 235.5,209C 232.406,212.522 231.073,216.688 231.5,221.5C 225.12,221.607 218.787,221.107 212.5,220C 209.023,216.518 205.023,213.852 200.5,212C 192.378,211.343 184.378,211.676 176.5,213C 169.928,208.522 169.928,203.855 176.5,199C 179.174,198.33 181.507,197.163 183.5,195.5 Z"/></g>
<g><path style="opacity:1" fill="#a8aebe" d="M 206.5,211.5 C 209.8,212.275 212.8,213.775 215.5,216C 219.782,217.157 224.116,217.99 228.5,218.5C 228.094,216.891 228.094,215.557 228.5,214.5C 229.452,216.045 229.785,217.712 229.5,219.5C 224.141,219.33 218.808,218.83 213.5,218C 211.271,215.6 208.937,213.433 206.5,211.5 Z"/></g>
<g><path style="opacity:1" fill="#b2b6c2" d="M 206.5,211.5 C 201.93,210.089 197.263,209.089 192.5,208.5C 187.252,209.973 181.918,210.473 176.5,210C 174.789,208.867 174.289,207.367 175,205.5C 175.734,207.736 177.234,209.069 179.5,209.5C 187.469,205.952 195.469,205.786 203.5,209C 204.942,209.377 205.942,210.21 206.5,211.5 Z"/></g>
<g><path style="opacity:1" fill="#a9b2bb" d="M 246.5,218.5 C 247.497,217.287 248.497,217.454 249.5,219C 255.915,219.83 262.249,220.163 268.5,220C 262.004,221.622 255.337,221.956 248.5,221C 247.934,220.005 247.267,219.172 246.5,218.5 Z"/></g>
<g><path style="opacity:1" fill="#f2f3f4" d="M 294.5,221.5 C 299.953,224.133 300.953,228.133 297.5,233.5C 289.827,238.842 282.161,244.175 274.5,249.5C 274.567,243.346 272.567,238.013 268.5,233.5C 268.957,232.702 269.624,232.369 270.5,232.5C 273.698,233.608 275.365,232.274 275.5,228.5C 277.891,226.638 280.558,225.304 283.5,224.5C 286.668,221.944 290.334,220.944 294.5,221.5 Z"/></g>
<g><path style="opacity:1" fill="#ededef" d="M 304.5,229.5 C 305.958,223.314 303.625,219.981 297.5,219.5C 297.62,218.414 298.287,217.747 299.5,217.5C 306.044,219.031 308.211,223.031 306,229.5C 305.31,230.738 304.81,230.738 304.5,229.5 Z"/></g>
<g><path style="opacity:1" fill="#9298aa" d="M 275.5,228.5 C 275.365,232.274 273.698,233.608 270.5,232.5C 272.142,231.197 273.809,229.864 275.5,228.5 Z"/></g>
<g><path style="opacity:1" fill="#98a3b6" d="M 295.5,228.5 C 296.803,230.757 296.136,232.59 293.5,234C 287.667,237.833 281.833,241.667 276,245.5C 275.316,244.216 275.483,243.049 276.5,242C 283.57,238.413 289.903,233.913 295.5,228.5 Z"/></g>
<g><path style="opacity:1" fill="#e4e5e7" d="M 258.5,237.5 C 258.56,236.957 258.893,236.624 259.5,236.5C 263.537,237.76 266.037,240.427 267,244.5C 268.824,251.199 266.99,256.532 261.5,260.5C 261.167,260.167 260.833,259.833 260.5,259.5C 266.542,253.278 267.042,246.612 262,239.5C 260.887,238.695 259.721,238.028 258.5,237.5 Z"/></g>
<g><path style="opacity:1" fill="#c5c9d2" d="M 180.5,230.5 C 182.338,233.924 185.005,236.758 188.5,239C 209.605,243.118 230.771,246.951 252,250.5C 254.859,250.209 256.192,248.542 256,245.5C 256.667,247.167 256.667,248.833 256,250.5C 252.256,251.626 248.423,251.793 244.5,251C 228.484,248.465 212.484,245.798 196.5,243C 192.267,242.109 188.267,240.609 184.5,238.5C 182.628,236.09 181.295,233.423 180.5,230.5 Z"/></g>
<g><path style="opacity:1" fill="#a0aabc" d="M 177.5,237.5 C 179.581,238.727 181.581,240.227 183.5,242C 187.035,243.706 190.702,245.04 194.5,246C 210.6,248.239 226.6,250.906 242.5,254C 246.821,254.499 251.154,254.666 255.5,254.5C 255.5,255.5 255.5,256.5 255.5,257.5C 253.354,257.878 251.187,258.212 249,258.5C 230.476,256.164 211.976,253.664 193.5,251C 189.016,249.257 184.683,247.257 180.5,245C 178.798,242.765 177.798,240.265 177.5,237.5 Z"/></g>
<g><path style="opacity:1" fill="#788499" d="M 175.5,228.5 C 176.497,228.47 177.164,228.97 177.5,230C 172.728,241.951 176.728,249.117 189.5,251.5C 178.978,254.314 172.978,250.314 171.5,239.5C 172.441,235.674 173.775,232.008 175.5,228.5 Z"/></g>
<g><path style="opacity:1" fill="#a8b1bf" d="M 147.5,247.5 C 157.614,248.113 162.114,253.446 161,263.5C 154.873,271.295 148.373,278.795 141.5,286C 140.552,286.483 139.552,286.649 138.5,286.5C 138.491,284.692 138.991,283.025 140,281.5C 145.717,275.288 151.217,268.954 156.5,262.5C 156.167,261.833 155.833,261.167 155.5,260.5C 150.46,266.039 145.293,271.372 140,276.5C 139.333,275.833 139.333,275.167 140,274.5C 146.09,268.231 151.923,262.564 157.5,257.5C 156.781,255.272 155.448,253.439 153.5,252C 149.584,250.898 145.584,250.231 141.5,250C 143.611,249.155 145.611,248.322 147.5,247.5 Z"/></g>
<g><path style="opacity:1" fill="#a2c2ab" d="M 94.5,327.5 C 94.6107,326.883 94.944,326.383 95.5,326C 100.375,325.247 105.208,325.414 110,326.5C 115.484,324.822 114.984,323.322 108.5,322C 100.187,320.763 92.5201,322.263 85.5,326.5C 88.0726,323.34 91.4059,321.173 95.5,320C 103.539,318.342 110.872,319.842 117.5,324.5C 118.725,326.843 118.059,328.677 115.5,330C 111.236,329.015 106.903,327.849 102.5,326.5C 99.8853,327.269 97.2186,327.603 94.5,327.5 Z"/></g>
<g><path style="opacity:1" fill="#b5efc7" d="M 94.5,327.5 C 90.9379,329.044 87.2712,329.878 83.5,330C 84.8228,329.184 85.4894,328.017 85.5,326.5C 92.5201,322.263 100.187,320.763 108.5,322C 114.984,323.322 115.484,324.822 110,326.5C 105.208,325.414 100.375,325.247 95.5,326C 94.944,326.383 94.6107,326.883 94.5,327.5 Z"/></g>
<g><path style="opacity:1" fill="#7ea7ae" d="M 353.5,338.5 C 352.178,338.67 351.011,338.337 350,337.5C 349.667,335.5 349.333,333.5 349,331.5C 348.51,332.793 348.343,334.127 348.5,335.5C 347.167,335.5 345.833,335.5 344.5,335.5C 344.155,331.885 344.822,328.552 346.5,325.5C 349.062,321.065 353.062,319.065 358.5,319.5C 363.739,319.621 368.073,321.621 371.5,325.5C 369.177,329.551 366.511,330.051 363.5,327C 360.167,326.333 356.833,326.333 353.5,327C 349.555,330.831 349.555,334.664 353.5,338.5 Z"/></g>
<g><path style="opacity:1" fill="#8cbcb9" d="M 301.5,322.5 C 306.324,323.981 306.657,326.147 302.5,329C 299.473,327.584 296.14,326.751 292.5,326.5C 289.218,326.078 286.552,327.078 284.5,329.5C 283.523,332.287 283.19,335.287 283.5,338.5C 279.259,339.091 277.593,337.258 278.5,333C 279.163,328.324 281.496,324.658 285.5,322C 290.885,321.267 296.218,321.433 301.5,322.5 Z"/></g>
<g><path style="opacity:1" fill="#99ccbd" d="M 188.5,321.5 C 191.916,325.323 194.582,329.657 196.5,334.5C 197.822,336.311 198.322,338.311 198,340.5C 196.951,341.517 195.784,341.684 194.5,341C 195.151,339.692 194.485,338.859 192.5,338.5C 190.178,337.198 188.845,335.198 188.5,332.5C 188.585,331.005 187.919,330.005 186.5,329.5C 185.534,331.396 185.201,333.396 185.5,335.5C 184.065,337.401 182.398,337.734 180.5,336.5C 180.5,331.5 180.5,326.5 180.5,321.5C 183.167,321.5 185.833,321.5 188.5,321.5 Z"/></g>
<g><path style="opacity:1" fill="#737f7f" d="M 261.5,339.5 C 254.687,340.491 247.687,340.825 240.5,340.5C 240.5,337.833 240.5,335.167 240.5,332.5C 240.5,330.5 240.5,328.5 240.5,326.5C 247.833,326.5 255.167,326.5 262.5,326.5C 262.5,324.833 262.5,323.167 262.5,321.5C 253.5,321.5 244.5,321.5 235.5,321.5C 235.5,324.167 235.5,326.833 235.5,329.5C 235.5,337.167 235.5,344.833 235.5,352.5C 235.5,356.833 235.5,361.167 235.5,365.5C 234.504,350.676 234.171,335.676 234.5,320.5C 244.167,320.5 253.833,320.5 263.5,320.5C 263.5,322.833 263.5,325.167 263.5,327.5C 256.167,327.5 248.833,327.5 241.5,327.5C 241.5,331.5 241.5,335.5 241.5,339.5C 248.167,339.5 254.833,339.5 261.5,339.5 Z"/></g>
<g><path style="opacity:1" fill="#91c7ba" d="M 240.5,332.5 C 239.167,332.5 237.833,332.5 236.5,332.5C 236.737,331.209 236.404,330.209 235.5,329.5C 235.5,326.833 235.5,324.167 235.5,321.5C 244.5,321.5 253.5,321.5 262.5,321.5C 262.5,323.167 262.5,324.833 262.5,326.5C 255.167,326.5 247.833,326.5 240.5,326.5C 240.5,328.5 240.5,330.5 240.5,332.5 Z"/></g>
<g><path style="opacity:1" fill="#a2d3bc" d="M 85.5,326.5 C 85.4894,328.017 84.8228,329.184 83.5,330C 87.2712,329.878 90.9379,329.044 94.5,327.5C 92.7698,329.079 90.9364,330.746 89,332.5C 88.059,334.727 86.8923,336.727 85.5,338.5C 84.6805,341.305 84.1805,344.305 84,347.5C 82.6439,348.38 81.1439,348.714 79.5,348.5C 79.5,344.5 79.5,340.5 79.5,336.5C 80.4792,332.539 82.4792,329.206 85.5,326.5 Z"/></g>
<g><path style="opacity:1" fill="#708682" d="M 164.5,365.5 C 164.5,363.833 164.5,362.167 164.5,360.5C 156.833,360.5 149.167,360.5 141.5,360.5C 141.5,357.5 141.5,354.5 141.5,351.5C 141.5,349.167 141.5,346.833 141.5,344.5C 148.5,344.5 155.5,344.5 162.5,344.5C 162.5,343.167 162.5,341.833 162.5,340.5C 155.5,340.5 148.5,340.5 141.5,340.5C 141.5,338.5 141.5,336.5 141.5,334.5C 141.5,331.833 141.5,329.167 141.5,326.5C 148.833,326.5 156.167,326.5 163.5,326.5C 163.5,324.833 163.5,323.167 163.5,321.5C 154.5,321.5 145.5,321.5 136.5,321.5C 136.5,324.167 136.5,326.833 136.5,329.5C 136.5,335.833 136.5,342.167 136.5,348.5C 136.5,354.167 136.5,359.833 136.5,365.5C 135.504,350.676 135.171,335.676 135.5,320.5C 145.167,320.5 154.833,320.5 164.5,320.5C 164.5,322.833 164.5,325.167 164.5,327.5C 157.167,327.5 149.833,327.5 142.5,327.5C 142.5,331.5 142.5,335.5 142.5,339.5C 149.5,339.5 156.5,339.5 163.5,339.5C 163.5,341.5 163.5,343.5 163.5,345.5C 156.5,345.5 149.5,345.5 142.5,345.5C 142.5,350.167 142.5,354.833 142.5,359.5C 150.167,359.5 157.833,359.5 165.5,359.5C 165.795,361.735 165.461,363.735 164.5,365.5 Z"/></g>
<g><path style="opacity:1" fill="#a4dabe" d="M 141.5,334.5 C 140.417,334.539 139.417,334.873 138.5,335.5C 137.831,333.369 137.165,331.369 136.5,329.5C 136.5,326.833 136.5,324.167 136.5,321.5C 145.5,321.5 154.5,321.5 163.5,321.5C 163.5,323.167 163.5,324.833 163.5,326.5C 156.167,326.5 148.833,326.5 141.5,326.5C 141.5,329.167 141.5,331.833 141.5,334.5 Z"/></g>
<g><path style="opacity:1" fill="#75a9b9" d="M 327.5,321.5 C 327.5,329.833 327.5,338.167 327.5,346.5C 325.5,347.833 323.5,347.833 321.5,346.5C 321.5,338.167 321.5,329.833 321.5,321.5C 323.5,321.5 325.5,321.5 327.5,321.5 Z"/></g>
<g><path style="opacity:1" fill="#6b95ab" d="M 346.5,325.5 C 344.822,328.552 344.155,331.885 344.5,335.5C 345.833,335.5 347.167,335.5 348.5,335.5C 348.343,334.127 348.51,332.793 349,331.5C 349.333,333.5 349.667,335.5 350,337.5C 351.011,338.337 352.178,338.67 353.5,338.5C 359.385,339.119 364.385,341.453 368.5,345.5C 367.34,346.611 366.007,347.611 364.5,348.5C 365.575,351.438 365.741,354.438 365,357.5C 364.617,358.056 364.117,358.389 363.5,358.5C 364.724,355.495 364.724,352.495 363.5,349.5C 359.487,346.993 355.153,345.16 350.5,344C 343.806,340.5 341.639,335 344,327.5C 344.708,326.619 345.542,325.953 346.5,325.5 Z"/></g>
<g><path style="opacity:1" fill="#92c8be" d="M 136.5,329.5 C 137.165,331.369 137.831,333.369 138.5,335.5C 139.417,334.873 140.417,334.539 141.5,334.5C 141.5,336.5 141.5,338.5 141.5,340.5C 148.5,340.5 155.5,340.5 162.5,340.5C 162.5,341.833 162.5,343.167 162.5,344.5C 155.5,344.5 148.5,344.5 141.5,344.5C 141.5,346.833 141.5,349.167 141.5,351.5C 140.279,352.028 139.113,352.695 138,353.5C 137.802,351.618 137.302,349.952 136.5,348.5C 136.5,342.167 136.5,335.833 136.5,329.5 Z"/></g>
<g><path style="opacity:1" fill="#7fb4bc" d="M 235.5,329.5 C 236.404,330.209 236.737,331.209 236.5,332.5C 237.833,332.5 239.167,332.5 240.5,332.5C 240.5,335.167 240.5,337.833 240.5,340.5C 247.687,340.825 254.687,340.491 261.5,339.5C 262.833,341.5 262.833,343.5 261.5,345.5C 254.687,344.509 247.687,344.175 240.5,344.5C 240.5,347.5 240.5,350.5 240.5,353.5C 239.518,354.141 238.518,354.807 237.5,355.5C 236.824,354.398 236.158,353.398 235.5,352.5C 235.5,344.833 235.5,337.167 235.5,329.5 Z"/></g>
<g><path style="opacity:1" fill="#759eaa" d="M 301.5,322.5 C 296.218,321.433 290.885,321.267 285.5,322C 281.496,324.658 279.163,328.324 278.5,333C 277.593,337.258 279.259,339.091 283.5,338.5C 283.19,335.287 283.523,332.287 284.5,329.5C 283.875,332.97 284.875,335.804 287.5,338C 291.912,338.788 296.079,340.288 300,342.5C 302.101,344.094 303.601,346.094 304.5,348.5C 304.664,351.187 304.497,353.854 304,356.5C 303.311,357.357 302.478,358.023 301.5,358.5C 300.692,356.577 300.192,354.577 300,352.5C 299.768,353.737 299.268,354.737 298.5,355.5C 298.838,352.843 298.171,350.51 296.5,348.5C 292.733,346.391 288.733,344.891 284.5,344C 277.812,340.441 275.645,334.941 278,327.5C 283.691,319.594 291.191,317.427 300.5,321C 301.056,321.383 301.389,321.883 301.5,322.5 Z"/></g>
<g><path style="opacity:1" fill="#9aaaa9" d="M 188.5,321.5 C 185.833,321.5 183.167,321.5 180.5,321.5C 180.5,326.5 180.5,331.5 180.5,336.5C 180.5,345.833 180.5,355.167 180.5,364.5C 182.167,364.5 183.833,364.5 185.5,364.5C 185.5,364.833 185.5,365.167 185.5,365.5C 183.5,365.5 181.5,365.5 179.5,365.5C 179.5,350.5 179.5,335.5 179.5,320.5C 182.713,320.19 185.713,320.523 188.5,321.5 Z"/></g>
<g><path style="opacity:1" fill="#55717b" d="M 261.5,345.5 C 254.833,345.5 248.167,345.5 241.5,345.5C 241.5,350.167 241.5,354.833 241.5,359.5C 249.167,359.5 256.833,359.5 264.5,359.5C 264.795,361.735 264.461,363.735 263.5,365.5C 263.5,363.833 263.5,362.167 263.5,360.5C 255.833,360.5 248.167,360.5 240.5,360.5C 240.5,358.167 240.5,355.833 240.5,353.5C 240.5,350.5 240.5,347.5 240.5,344.5C 247.687,344.175 254.687,344.509 261.5,345.5 Z"/></g>
<g><path style="opacity:1" fill="#597778" d="M 188.5,332.5 C 187.883,332.389 187.383,332.056 187,331.5C 186.831,343.007 186.331,354.341 185.5,365.5C 185.5,365.167 185.5,364.833 185.5,364.5C 185.5,354.833 185.5,345.167 185.5,335.5C 185.201,333.396 185.534,331.396 186.5,329.5C 187.919,330.005 188.585,331.005 188.5,332.5 Z"/></g>
<g><path style="opacity:1" fill="#82b7bd" d="M 185.5,335.5 C 185.5,345.167 185.5,354.833 185.5,364.5C 183.833,364.5 182.167,364.5 180.5,364.5C 180.5,355.167 180.5,345.833 180.5,336.5C 182.398,337.734 184.065,337.401 185.5,335.5 Z"/></g>
<g><path style="opacity:1" fill="#4e616b" d="M 327.5,321.5 C 325.5,321.5 323.5,321.5 321.5,321.5C 321.5,329.833 321.5,338.167 321.5,346.5C 321.823,352.69 321.49,358.69 320.5,364.5C 320.5,349.833 320.5,335.167 320.5,320.5C 323.059,320.198 325.393,320.532 327.5,321.5 Z"/></g>
<g><path style="opacity:1" fill="#6092b5" d="M 321.5,346.5 C 323.5,347.833 325.5,347.833 327.5,346.5C 327.5,352.833 327.5,359.167 327.5,365.5C 324.941,365.802 322.607,365.468 320.5,364.5C 321.49,358.69 321.823,352.69 321.5,346.5 Z"/></g>
<g><path style="opacity:1" fill="#8bb8b0" d="M 79.5,336.5 C 79.5,340.5 79.5,344.5 79.5,348.5C 81.1439,348.714 82.6439,348.38 84,347.5C 84.1805,344.305 84.6805,341.305 85.5,338.5C 85.05,344.136 86.05,349.47 88.5,354.5C 90.0908,356.437 91.7575,358.437 93.5,360.5C 90.8438,361.614 88.1771,361.614 85.5,360.5C 78.7293,353.676 76.7293,345.676 79.5,336.5 Z"/></g>
<g><path style="opacity:1" fill="#7fa5ad" d="M 192.5,338.5 C 194.485,338.859 195.151,339.692 194.5,341C 195.784,341.684 196.951,341.517 198,340.5C 198.322,338.311 197.822,336.311 196.5,334.5C 201.264,340.568 205.764,346.902 210,353.5C 210.5,342.505 210.667,331.505 210.5,320.5C 213.119,320.232 215.619,320.565 218,321.5C 218.5,336.163 218.667,350.83 218.5,365.5C 215.482,365.665 212.482,365.498 209.5,365C 203.189,356.534 197.522,347.701 192.5,338.5 Z"/></g>
<g><path style="opacity:1" fill="#95cbc0" d="M 211.5,321.5 C 213.167,321.5 214.833,321.5 216.5,321.5C 216.5,326.5 216.5,331.5 216.5,336.5C 214.856,336.286 213.356,336.62 212,337.5C 211.501,332.177 211.334,326.844 211.5,321.5 Z"/></g>
<g><path style="opacity:1" fill="#8bc1bc" d="M 118.5,341.5 C 118.498,348.52 118.165,355.52 117.5,362.5C 110.73,362.86 104.064,363.86 97.5,365.5C 97.62,364.414 98.2867,363.747 99.5,363.5C 104.025,362.956 108.358,361.956 112.5,360.5C 112.5,355.5 112.5,350.5 112.5,345.5C 109.5,345.5 106.5,345.5 103.5,345.5C 103.5,344.167 103.5,342.833 103.5,341.5C 108.5,341.5 113.5,341.5 118.5,341.5 Z"/></g>
<g><path style="opacity:1" fill="#83a4a4" d="M 118.5,341.5 C 113.5,341.5 108.5,341.5 103.5,341.5C 103.5,342.833 103.5,344.167 103.5,345.5C 106.5,345.5 109.5,345.5 112.5,345.5C 112.5,350.5 112.5,355.5 112.5,360.5C 108.358,361.956 104.025,362.956 99.5,363.5C 98.2867,363.747 97.62,364.414 97.5,365.5C 92.7559,365.457 88.7559,363.79 85.5,360.5C 88.1771,361.614 90.8438,361.614 93.5,360.5C 91.7575,358.437 90.0908,356.437 88.5,354.5C 94.8773,360.39 102.211,361.89 110.5,359C 111.46,355.27 111.793,351.437 111.5,347.5C 108.5,347.5 105.5,347.5 102.5,347.5C 102.5,345.167 102.5,342.833 102.5,340.5C 108.026,340.179 113.36,340.512 118.5,341.5 Z"/></g>
<g><path style="opacity:1" fill="#547ea8" d="M 368.5,345.5 C 369.79,346.058 370.623,347.058 371,348.5C 372.829,355.16 370.996,360.493 365.5,364.5C 356.448,368.044 348.448,366.544 341.5,360C 342.725,358.437 344.225,357.27 346,356.5C 351.496,360.834 357.329,361.5 363.5,358.5C 364.117,358.389 364.617,358.056 365,357.5C 365.741,354.438 365.575,351.438 364.5,348.5C 366.007,347.611 367.34,346.611 368.5,345.5 Z"/></g>
<g><path style="opacity:1" fill="#7eb0bb" d="M 136.5,348.5 C 137.302,349.952 137.802,351.618 138,353.5C 139.113,352.695 140.279,352.028 141.5,351.5C 141.5,354.5 141.5,357.5 141.5,360.5C 149.167,360.5 156.833,360.5 164.5,360.5C 164.5,362.167 164.5,363.833 164.5,365.5C 155.167,365.5 145.833,365.5 136.5,365.5C 136.5,359.833 136.5,354.167 136.5,348.5 Z"/></g>
<g><path style="opacity:1" fill="#6899b5" d="M 235.5,352.5 C 236.158,353.398 236.824,354.398 237.5,355.5C 238.518,354.807 239.518,354.141 240.5,353.5C 240.5,355.833 240.5,358.167 240.5,360.5C 248.167,360.5 255.833,360.5 263.5,360.5C 263.5,362.167 263.5,363.833 263.5,365.5C 254.167,365.5 244.833,365.5 235.5,365.5C 235.5,361.167 235.5,356.833 235.5,352.5 Z"/></g>
<g><path style="opacity:1" fill="#5f88a6" d="M 304.5,348.5 C 307.044,360.144 302.21,366.144 290,366.5C 284.021,366.78 279.188,364.613 275.5,360C 277.017,358.315 278.684,356.815 280.5,355.5C 284.161,360.045 288.828,361.545 294.5,360C 296.384,358.951 297.718,357.451 298.5,355.5C 299.268,354.737 299.768,353.737 300,352.5C 300.192,354.577 300.692,356.577 301.5,358.5C 302.478,358.023 303.311,357.357 304,356.5C 304.497,353.854 304.664,351.187 304.5,348.5 Z"/></g>
<g><path style="opacity:1" fill="#86a3a6" d="M 118.5,341.5 C 119.655,348.321 119.821,355.321 119,362.5C 112.087,366.169 104.921,367.169 97.5,365.5C 104.064,363.86 110.73,362.86 117.5,362.5C 118.165,355.52 118.498,348.52 118.5,341.5 Z"/></g>
</svg>
